<svg id="Capa_1" data-name="Capa 1" xmlns="http://www.w3.org/2000/svg" viewBox="0 0 147 34.23"><defs><style>.cls-1{fill:#f5f3f4;}</style></defs><path class="cls-1" d="M143.9,47c-4.5,2.54-12.11,2.54-16.61,0-5.76-3.26-14.77-3.26-20.53,0-4.5,2.54-12.11,2.54-16.62,0-5.75-3.26-14.76-3.26-20.52,0C65.11,49.52,57.5,49.52,53,47c-5.69-3.22-14.56-3.26-20.32-.12C28,49.4,20.54,49.64,15.91,47l-.76-.43L13,49.66l1,.55c5.7,3.22,14.9,2.94,20.66-.15,4.53-2.44,12-2.4,16.41.11,5.76,3.26,14.77,3.26,20.53,0,4.51-2.55,12.12-2.55,16.62,0,5.76,3.26,14.77,3.26,20.53,0,4.5-2.55,12.11-2.55,16.61,0,5.76,3.26,14.77,3.26,20.53,0,3.75-2.13,9.67-2.47,14.14-1.05V45.25c-5.32-1.35-11.67-.78-16.1,1.73" transform="translate(-13 -18.38)"/><path class="cls-1" d="M143.9,38.26c-4.5,2.54-12.11,2.54-16.61,0-5.76-3.26-14.77-3.26-20.53,0-4.5,2.54-12.11,2.54-16.62,0C84.39,35,75.38,35,69.62,38.26,65.11,40.8,57.5,40.8,53,38.26,47.24,35,38.22,35,32.47,38.26c-3.32,1.87-8.32,2.36-12.52,1.48L17.66,43c5.45,1.57,12.15,1.06,16.76-1.55s12.12-2.55,16.62,0c5.76,3.26,14.77,3.26,20.53,0,4.51-2.55,12.12-2.54,16.62,0,5.76,3.26,14.77,3.26,20.53,0,4.5-2.54,12.11-2.55,16.61,0,5.76,3.26,14.77,3.26,20.53,0,3.75-2.12,9.67-2.47,14.14-1.05V36.53c-5.32-1.35-11.67-.77-16.1,1.73" transform="translate(-13 -18.38)"/><path class="cls-1" d="M143.9,29.54c-4.5,2.54-12.11,2.54-16.61,0-5.76-3.26-14.77-3.26-20.53,0-4.5,2.55-12.11,2.55-16.62,0-5.75-3.25-14.76-3.26-20.52,0-4.51,2.54-12.12,2.54-16.62,0-5.76-3.26-14.78-3.26-20.53,0a16.46,16.46,0,0,1-6.68,1.84l-2.63,3.77a21.71,21.71,0,0,0,11.26-2.42c4.51-2.55,12.12-2.54,16.62,0C56.8,36,65.81,36,71.57,32.73c4.51-2.54,12.12-2.54,16.62,0C94,36,103,36,108.72,32.73c4.5-2.54,12.11-2.54,16.61,0,5.76,3.26,14.77,3.26,20.53,0,3.75-2.12,9.67-2.47,14.14-1V27.81c-5.32-1.34-11.67-.77-16.1,1.73" transform="translate(-13 -18.38)"/><path class="cls-1" d="M143.9,20.82c-4.5,2.55-12.11,2.55-16.61,0-5.76-3.25-14.77-3.25-20.53,0-4.5,2.55-12.11,2.55-16.62,0-5.75-3.25-14.76-3.25-20.52,0-4.51,2.55-12.12,2.55-16.62,0-5.4-3.05-13.66-3.24-19.42-.57l-3.9,5.57A18.15,18.15,0,0,0,34.42,24c4.51-2.54,12.12-2.54,16.62,0,5.76,3.26,14.77,3.26,20.53,0,4.51-2.54,12.12-2.54,16.62,0C94,27.27,103,27.27,108.72,24c4.5-2.54,12.11-2.54,16.61,0,5.76,3.26,14.77,3.26,20.53,0,3.75-2.12,9.67-2.47,14.14-1.05V19.1c-5.32-1.35-11.67-.78-16.1,1.72" transform="translate(-13 -18.38)"/></svg>