<svg width="440" height="193" viewBox="0 0 440 193" fill="none" xmlns="http://www.w3.org/2000/svg">
<path d="M95.84 189L100.192 168.392H110.496C111.861 168.392 113.013 168.691 113.952 169.288C114.912 169.864 115.584 170.685 115.968 171.752C116.373 172.797 116.416 174.035 116.096 175.464C115.819 176.851 115.211 178.067 114.272 179.112C113.355 180.157 112.235 180.936 110.912 181.448C111.147 181.683 111.317 181.949 111.424 182.248C111.552 182.525 111.669 182.92 111.776 183.432L113.056 189H107.68L106.464 183.752C106.357 183.261 106.176 182.931 105.92 182.76C105.685 182.568 105.291 182.472 104.736 182.472H102.368L100.992 189H95.84ZM103.2 178.504H107.008C108.011 178.504 108.843 178.259 109.504 177.768C110.187 177.256 110.635 176.488 110.848 175.464C111.083 174.44 111.061 173.672 110.784 173.16C110.528 172.627 109.781 172.36 108.544 172.36H104.512L103.2 178.504ZM115.871 189L120.223 168.392H135.423L134.591 172.36H124.543L123.615 176.68H132.479L131.647 180.712H122.783L121.855 185.032H131.903L131.071 189H115.871ZM133.559 189L137.911 168.392H147.767C149.367 168.392 150.647 168.723 151.607 169.384C152.588 170.045 153.249 170.931 153.591 172.04C153.953 173.149 153.996 174.387 153.719 175.752C153.292 177.971 152.353 179.731 150.903 181.032C149.452 182.312 147.489 182.952 145.015 182.952H139.991L138.711 189H133.559ZM140.823 178.984H144.535C145.793 178.984 146.721 178.685 147.319 178.088C147.916 177.491 148.311 176.701 148.503 175.72C148.737 174.525 148.684 173.672 148.343 173.16C148.023 172.627 147.276 172.36 146.103 172.36H142.231L140.823 178.984ZM162.181 189.32C160.432 189.32 158.906 188.989 157.605 188.328C156.325 187.645 155.397 186.696 154.821 185.48C154.245 184.243 154.128 182.803 154.469 181.16L157.157 168.392H162.309L159.717 180.68C159.418 182.109 159.514 183.176 160.005 183.88C160.517 184.584 161.552 184.936 163.109 184.936C164.688 184.936 165.882 184.584 166.693 183.88C167.504 183.176 168.058 182.109 168.357 180.68L170.949 168.392H176.101L173.413 181.16C172.816 183.933 171.557 185.992 169.637 187.336C167.717 188.659 165.232 189.32 162.181 189.32ZM174.871 189L179.223 168.392H194.423L193.591 172.36H183.543L182.615 176.68H191.479L190.647 180.712H181.783L180.855 185.032H190.903L190.071 189H174.871ZM199.023 189.32C197.657 189.32 196.399 189.213 195.247 189C194.116 188.808 193.167 188.52 192.399 188.136L193.327 183.752C194.201 184.157 195.172 184.488 196.239 184.744C197.327 185 198.383 185.128 199.407 185.128C200.687 185.128 201.668 185.011 202.351 184.776C203.033 184.541 203.46 184.029 203.631 183.24C203.737 182.707 203.673 182.28 203.439 181.96C203.204 181.64 202.756 181.363 202.095 181.128C201.455 180.872 200.58 180.573 199.471 180.232C197.487 179.613 196.164 178.856 195.503 177.96C194.863 177.043 194.713 175.773 195.055 174.152C195.481 172.189 196.505 170.685 198.127 169.64C199.769 168.595 201.967 168.072 204.719 168.072C205.913 168.072 207.055 168.168 208.143 168.36C209.231 168.531 210.105 168.733 210.767 168.968L209.807 173.384C208.953 173.021 208.079 172.755 207.183 172.584C206.308 172.413 205.433 172.328 204.559 172.328C203.407 172.328 202.447 172.435 201.679 172.648C200.932 172.861 200.473 173.352 200.303 174.12C200.217 174.568 200.271 174.931 200.463 175.208C200.655 175.464 201.039 175.699 201.615 175.912C202.212 176.125 203.023 176.381 204.047 176.68C205.647 177.128 206.82 177.672 207.567 178.312C208.335 178.931 208.804 179.656 208.975 180.488C209.145 181.299 209.124 182.216 208.911 183.24C208.527 185.053 207.503 186.525 205.839 187.656C204.196 188.765 201.924 189.32 199.023 189.32ZM214.483 189L218.003 172.36H211.955L212.787 168.392H230.035L229.203 172.36H223.155L219.635 189H214.483ZM236.876 189.32C234.828 189.32 233.111 188.936 231.724 188.168C230.359 187.4 229.409 186.237 228.876 184.68C228.343 183.123 228.332 181.16 228.844 178.792C229.655 174.973 231.073 172.232 233.1 170.568C235.127 168.904 237.9 168.072 241.42 168.072C243.468 168.072 245.175 168.456 246.54 169.224C247.927 169.971 248.876 171.133 249.388 172.712C249.921 174.291 249.921 176.317 249.388 178.792C248.62 182.397 247.212 185.053 245.164 186.76C243.137 188.467 240.375 189.32 236.876 189.32ZM237.804 184.936C239.532 184.936 240.897 184.445 241.9 183.464C242.924 182.461 243.66 180.904 244.108 178.792C244.449 177.192 244.567 175.933 244.46 175.016C244.353 174.099 243.969 173.448 243.308 173.064C242.668 172.68 241.719 172.488 240.46 172.488C238.711 172.488 237.335 172.968 236.332 173.928C235.329 174.867 234.583 176.488 234.092 178.792C233.793 180.264 233.697 181.459 233.804 182.376C233.911 183.272 234.284 183.923 234.924 184.328C235.564 184.733 236.524 184.936 237.804 184.936ZM256.335 189.32C254.97 189.32 253.711 189.213 252.559 189C251.429 188.808 250.479 188.52 249.711 188.136L250.639 183.752C251.514 184.157 252.485 184.488 253.551 184.744C254.639 185 255.695 185.128 256.719 185.128C257.999 185.128 258.981 185.011 259.663 184.776C260.346 184.541 260.773 184.029 260.943 183.24C261.05 182.707 260.986 182.28 260.751 181.96C260.517 181.64 260.069 181.363 259.407 181.128C258.767 180.872 257.893 180.573 256.783 180.232C254.799 179.613 253.477 178.856 252.815 177.96C252.175 177.043 252.026 175.773 252.367 174.152C252.794 172.189 253.818 170.685 255.439 169.64C257.082 168.595 259.279 168.072 262.031 168.072C263.226 168.072 264.367 168.168 265.455 168.36C266.543 168.531 267.418 168.733 268.079 168.968L267.119 173.384C266.266 173.021 265.391 172.755 264.495 172.584C263.621 172.413 262.746 172.328 261.871 172.328C260.719 172.328 259.759 172.435 258.991 172.648C258.245 172.861 257.786 173.352 257.615 174.12C257.53 174.568 257.583 174.931 257.775 175.208C257.967 175.464 258.351 175.699 258.927 175.912C259.525 176.125 260.335 176.381 261.359 176.68C262.959 177.128 264.133 177.672 264.879 178.312C265.647 178.931 266.117 179.656 266.287 180.488C266.458 181.299 266.437 182.216 266.223 183.24C265.839 185.053 264.815 186.525 263.151 187.656C261.509 188.765 259.237 189.32 256.335 189.32ZM267.652 189L272.005 168.392H280.933C282.831 168.392 284.431 168.744 285.733 169.448C287.034 170.152 287.93 171.272 288.421 172.808C288.911 174.344 288.901 176.349 288.389 178.824C287.898 181.171 287.194 183.101 286.277 184.616C285.359 186.109 284.143 187.219 282.629 187.944C281.135 188.648 279.258 189 276.997 189H267.652ZM273.637 185.032H276.709C277.967 185.032 279.002 184.872 279.813 184.552C280.623 184.211 281.285 183.592 281.797 182.696C282.33 181.8 282.778 180.509 283.141 178.824C283.503 177.117 283.653 175.805 283.589 174.888C283.525 173.949 283.162 173.299 282.501 172.936C281.861 172.552 280.826 172.36 279.397 172.36H276.325L273.637 185.032ZM304.775 189.48L303.143 187.336C301.223 188.659 298.866 189.32 296.071 189.32C293.49 189.32 291.634 188.787 290.503 187.72C289.394 186.653 289.01 185.309 289.351 183.688C289.65 182.28 290.269 181.096 291.207 180.136C292.167 179.155 293.426 178.28 294.983 177.512C294.45 176.829 294.045 176.157 293.767 175.496C293.511 174.835 293.479 174.045 293.671 173.128C293.991 171.635 294.749 170.419 295.943 169.48C297.138 168.541 298.759 168.072 300.807 168.072C302.706 168.072 304.082 168.563 304.935 169.544C305.81 170.504 306.098 171.699 305.799 173.128C305.586 174.173 305.159 175.091 304.519 175.88C303.879 176.648 303.015 177.395 301.927 178.12L304.583 181.608C304.925 181.139 305.181 180.531 305.351 179.784L305.479 179.208H309.351L309.191 179.944C309.021 180.776 308.722 181.587 308.295 182.376C307.869 183.165 307.389 183.837 306.855 184.392L308.583 186.6L304.775 189.48ZM299.047 176.04C299.794 175.635 300.37 175.251 300.775 174.888C301.202 174.504 301.479 174.003 301.607 173.384C301.735 172.829 301.682 172.381 301.447 172.04C301.213 171.677 300.775 171.496 300.135 171.496C299.453 171.496 298.919 171.667 298.535 172.008C298.151 172.328 297.906 172.744 297.799 173.256C297.714 173.683 297.778 174.12 297.991 174.568C298.226 175.016 298.578 175.507 299.047 176.04ZM296.839 185.8C297.629 185.8 298.322 185.704 298.919 185.512C299.538 185.299 300.093 184.989 300.583 184.584L297.511 180.552C295.677 181.171 294.621 182.173 294.343 183.56C294.194 184.285 294.333 184.84 294.759 185.224C295.207 185.608 295.901 185.8 296.839 185.8ZM310.527 189L314.88 168.392H325.504C327.552 168.392 329.045 168.904 329.984 169.928C330.922 170.952 331.21 172.317 330.848 174.024C330.613 175.112 330.208 176.029 329.632 176.776C329.077 177.501 328.405 178.067 327.616 178.472C328.49 178.813 329.12 179.347 329.503 180.072C329.888 180.776 329.952 181.736 329.696 182.952C329.29 184.915 328.426 186.419 327.104 187.464C325.802 188.488 324.01 189 321.728 189H310.527ZM318.272 176.776H322.464C323.36 176.776 324.053 176.573 324.544 176.168C325.034 175.763 325.354 175.197 325.504 174.472C325.674 173.683 325.6 173.096 325.28 172.712C324.96 172.307 324.266 172.104 323.2 172.104H319.264L318.272 176.776ZM316.448 185.32H321.152C322.197 185.32 322.954 185.128 323.424 184.744C323.914 184.36 324.266 183.677 324.48 182.696C324.65 181.907 324.554 181.32 324.192 180.936C323.829 180.531 323.104 180.328 322.016 180.328H317.504L316.448 185.32Z" fill="#012C72"/>
<g clip-path="url(#clip0_88_1714)">
<path d="M203.733 88.9442C224.874 58.7087 243.431 31.9197 262.457 5.44402C264.98 2.66889 268.5 1.00707 272.245 0.822527C284.303 0.274215 296.439 0.587535 311.707 0.587535L272.01 58.6303H437.103L440 62.5468C421.678 86.0459 405 111.347 384.251 132.496C375.286 141.66 357.904 146.243 344.241 146.478C262.34 147.809 180.557 147.144 98.3432 147.144C80.3345 147.144 79.6298 130.342 67.2195 118.279H101.788C177.386 118.279 252.944 118.279 328.542 118.279C349.173 118.279 361.701 107.822 372.115 88.7483L203.733 88.9442Z" fill="#CB000D"/>
<path d="M69.1378 50.8364C79.2384 71.6723 92.6275 81.4635 113.063 81.2286C139.411 80.9152 165.719 81.2286 192.067 81.2286C192.542 81.3056 193.003 81.4507 193.437 81.6594C188.152 101.712 179.226 109.075 160.238 109.075C138.315 109.075 116.378 109.075 94.4283 109.075C76.9677 109.075 60.9556 103.514 50.0721 90.0799C32.9246 69.009 17.6564 46.3716 0 22.2066C7.82988 21.8542 13.0759 21.4233 18.1653 21.3842C72.3089 21.3842 126.453 21.6192 180.596 21.0708C186.39 21.0708 194.886 17.8985 197.352 13.512C203.929 1.76242 213.012 -1.05747 225.109 -1.31187e-05C233.683 0.70496 242.374 -1.31187e-05 254.08 -1.31187e-05C242.022 17.1935 231.999 32.5071 220.646 46.9982C218.14 50.1314 210.976 50.4839 205.965 50.5231C166.463 50.7972 126.961 50.5231 87.4597 50.5231L69.1378 50.8364Z" fill="#012C72"/>
</g>
<defs>
<clipPath id="clip0_88_1714">
<rect width="440" height="147.3" fill="white"/>
</clipPath>
</defs>
</svg>
