<svg width="84" height="43" viewBox="0 0 84 43" fill="none" xmlns="http://www.w3.org/2000/svg">
<path d="M9.96 40L11.048 34.848H13.624C13.9653 34.848 14.2533 34.9227 14.488 35.072C14.728 35.216 14.896 35.4213 14.992 35.688C15.0933 35.9493 15.104 36.2587 15.024 36.616C14.9547 36.9627 14.8027 37.2667 14.568 37.528C14.3387 37.7893 14.0587 37.984 13.728 38.112C13.7867 38.1707 13.8293 38.2373 13.856 38.312C13.888 38.3813 13.9173 38.48 13.944 38.608L14.264 40H12.92L12.616 38.688C12.5893 38.5653 12.544 38.4827 12.48 38.44C12.4213 38.392 12.3227 38.368 12.184 38.368H11.592L11.248 40H9.96ZM11.8 37.376H12.752C13.0027 37.376 13.2107 37.3147 13.376 37.192C13.5467 37.064 13.6587 36.872 13.712 36.616C13.7707 36.36 13.7653 36.168 13.696 36.04C13.632 35.9067 13.4453 35.84 13.136 35.84H12.128L11.8 37.376ZM14.9678 40L16.0558 34.848H19.8558L19.6478 35.84H17.1358L16.9038 36.92H19.1198L18.9118 37.928H16.6958L16.4638 39.008H18.9758L18.7678 40H14.9678ZM19.3897 40L20.4777 34.848H22.9417C23.3417 34.848 23.6617 34.9307 23.9017 35.096C24.147 35.2613 24.3124 35.4827 24.3977 35.76C24.4884 36.0373 24.499 36.3467 24.4297 36.688C24.323 37.2427 24.0884 37.6827 23.7257 38.008C23.363 38.328 22.8724 38.488 22.2537 38.488H20.9977L20.6777 40H19.3897ZM21.2057 37.496H22.1337C22.4484 37.496 22.6804 37.4213 22.8297 37.272C22.979 37.1227 23.0777 36.9253 23.1257 36.68C23.1844 36.3813 23.171 36.168 23.0857 36.04C23.0057 35.9067 22.819 35.84 22.5257 35.84H21.5577L21.2057 37.496ZM26.5453 40.08C26.1079 40.08 25.7266 39.9973 25.4013 39.832C25.0813 39.6613 24.8493 39.424 24.7053 39.12C24.5613 38.8107 24.5319 38.4507 24.6173 38.04L25.2893 34.848H26.5773L25.9293 37.92C25.8546 38.2773 25.8786 38.544 26.0013 38.72C26.1293 38.896 26.3879 38.984 26.7773 38.984C27.1719 38.984 27.4706 38.896 27.6733 38.72C27.8759 38.544 28.0146 38.2773 28.0893 37.92L28.7373 34.848H30.0253L29.3533 38.04C29.2039 38.7333 28.8893 39.248 28.4093 39.584C27.9293 39.9147 27.3079 40.08 26.5453 40.08ZM29.7178 40L30.8058 34.848H34.6058L34.3978 35.84H31.8858L31.6538 36.92H33.8698L33.6618 37.928H31.4458L31.2138 39.008H33.7258L33.5178 40H29.7178ZM35.7557 40.08C35.4144 40.08 35.0997 40.0533 34.8117 40C34.529 39.952 34.2917 39.88 34.0997 39.784L34.3317 38.688C34.5504 38.7893 34.793 38.872 35.0597 38.936C35.3317 39 35.5957 39.032 35.8517 39.032C36.1717 39.032 36.417 39.0027 36.5877 38.944C36.7584 38.8853 36.865 38.7573 36.9077 38.56C36.9344 38.4267 36.9184 38.32 36.8597 38.24C36.801 38.16 36.689 38.0907 36.5237 38.032C36.3637 37.968 36.145 37.8933 35.8677 37.808C35.3717 37.6533 35.041 37.464 34.8757 37.24C34.7157 37.0107 34.6784 36.6933 34.7637 36.288C34.8704 35.7973 35.1264 35.4213 35.5317 35.16C35.9424 34.8987 36.4917 34.768 37.1797 34.768C37.4784 34.768 37.7637 34.792 38.0357 34.84C38.3077 34.8827 38.5264 34.9333 38.6917 34.992L38.4517 36.096C38.2384 36.0053 38.0197 35.9387 37.7957 35.896C37.577 35.8533 37.3584 35.832 37.1397 35.832C36.8517 35.832 36.6117 35.8587 36.4197 35.912C36.233 35.9653 36.1184 36.088 36.0757 36.28C36.0544 36.392 36.0677 36.4827 36.1157 36.552C36.1637 36.616 36.2597 36.6747 36.4037 36.728C36.553 36.7813 36.7557 36.8453 37.0117 36.92C37.4117 37.032 37.705 37.168 37.8917 37.328C38.0837 37.4827 38.201 37.664 38.2437 37.872C38.2864 38.0747 38.281 38.304 38.2277 38.56C38.1317 39.0133 37.8757 39.3813 37.4597 39.664C37.049 39.9413 36.481 40.08 35.7557 40.08ZM39.6208 40L40.5008 35.84H38.9888L39.1968 34.848H43.5088L43.3008 35.84H41.7888L40.9088 40H39.6208ZM45.219 40.08C44.707 40.08 44.2777 39.984 43.931 39.792C43.5897 39.6 43.3523 39.3093 43.219 38.92C43.0857 38.5307 43.083 38.04 43.211 37.448C43.4137 36.4933 43.7683 35.808 44.275 35.392C44.7817 34.976 45.475 34.768 46.355 34.768C46.867 34.768 47.2937 34.864 47.635 35.056C47.9817 35.2427 48.219 35.5333 48.347 35.928C48.4803 36.3227 48.4803 36.8293 48.347 37.448C48.155 38.3493 47.803 39.0133 47.291 39.44C46.7843 39.8667 46.0937 40.08 45.219 40.08ZM45.451 38.984C45.883 38.984 46.2243 38.8613 46.475 38.616C46.731 38.3653 46.915 37.976 47.027 37.448C47.1123 37.048 47.1417 36.7333 47.115 36.504C47.0883 36.2747 46.9923 36.112 46.827 36.016C46.667 35.92 46.4297 35.872 46.115 35.872C45.6777 35.872 45.3337 35.992 45.083 36.232C44.8323 36.4667 44.6457 36.872 44.523 37.448C44.4483 37.816 44.4243 38.1147 44.451 38.344C44.4777 38.568 44.571 38.7307 44.731 38.832C44.891 38.9333 45.131 38.984 45.451 38.984ZM50.0838 40.08C49.7425 40.08 49.4278 40.0533 49.1398 40C48.8571 39.952 48.6198 39.88 48.4278 39.784L48.6598 38.688C48.8785 38.7893 49.1211 38.872 49.3878 38.936C49.6598 39 49.9238 39.032 50.1798 39.032C50.4998 39.032 50.7451 39.0027 50.9158 38.944C51.0865 38.8853 51.1931 38.7573 51.2358 38.56C51.2625 38.4267 51.2465 38.32 51.1878 38.24C51.1291 38.16 51.0171 38.0907 50.8518 38.032C50.6918 37.968 50.4731 37.8933 50.1958 37.808C49.6998 37.6533 49.3691 37.464 49.2038 37.24C49.0438 37.0107 49.0065 36.6933 49.0918 36.288C49.1985 35.7973 49.4545 35.4213 49.8598 35.16C50.2705 34.8987 50.8198 34.768 51.5078 34.768C51.8065 34.768 52.0918 34.792 52.3638 34.84C52.6358 34.8827 52.8545 34.9333 53.0198 34.992L52.7798 36.096C52.5665 36.0053 52.3478 35.9387 52.1238 35.896C51.9051 35.8533 51.6865 35.832 51.4678 35.832C51.1798 35.832 50.9398 35.8587 50.7478 35.912C50.5611 35.9653 50.4465 36.088 50.4038 36.28C50.3825 36.392 50.3958 36.4827 50.4438 36.552C50.4918 36.616 50.5878 36.6747 50.7318 36.728C50.8811 36.7813 51.0838 36.8453 51.3398 36.92C51.7398 37.032 52.0331 37.168 52.2198 37.328C52.4118 37.4827 52.5291 37.664 52.5718 37.872C52.6145 38.0747 52.6091 38.304 52.5558 38.56C52.4598 39.0133 52.2038 39.3813 51.7878 39.664C51.3771 39.9413 50.8091 40.08 50.0838 40.08ZM52.9131 40L54.0011 34.848H56.2331C56.7078 34.848 57.1078 34.936 57.4331 35.112C57.7585 35.288 57.9825 35.568 58.1051 35.952C58.2278 36.336 58.2251 36.8373 58.0971 37.456C57.9745 38.0427 57.7985 38.5253 57.5691 38.904C57.3398 39.2773 57.0358 39.5547 56.6571 39.736C56.2838 39.912 55.8145 40 55.2491 40H52.9131ZM54.4091 39.008H55.1771C55.4918 39.008 55.7505 38.968 55.9531 38.888C56.1558 38.8027 56.3211 38.648 56.4491 38.424C56.5825 38.2 56.6945 37.8773 56.7851 37.456C56.8758 37.0293 56.9131 36.7013 56.8971 36.472C56.8811 36.2373 56.7905 36.0747 56.6251 35.984C56.4651 35.888 56.2065 35.84 55.8491 35.84H55.0811L54.4091 39.008ZM62.1938 40.12L61.7858 39.584C61.3058 39.9147 60.7165 40.08 60.0178 40.08C59.3725 40.08 58.9085 39.9467 58.6258 39.68C58.3485 39.4133 58.2525 39.0773 58.3378 38.672C58.4125 38.32 58.5671 38.024 58.8018 37.784C59.0418 37.5387 59.3565 37.32 59.7458 37.128C59.6125 36.9573 59.5111 36.7893 59.4418 36.624C59.3778 36.4587 59.3698 36.2613 59.4178 36.032C59.4978 35.6587 59.6871 35.3547 59.9858 35.12C60.2845 34.8853 60.6898 34.768 61.2018 34.768C61.6765 34.768 62.0205 34.8907 62.2338 35.136C62.4525 35.376 62.5245 35.6747 62.4498 36.032C62.3965 36.2933 62.2898 36.5227 62.1298 36.72C61.9698 36.912 61.7538 37.0987 61.4818 37.28L62.1458 38.152C62.2311 38.0347 62.2951 37.8827 62.3378 37.696L62.3698 37.552H63.3378L63.2978 37.736C63.2551 37.944 63.1805 38.1467 63.0738 38.344C62.9671 38.5413 62.8471 38.7093 62.7138 38.848L63.1458 39.4L62.1938 40.12ZM60.7618 36.76C60.9485 36.6587 61.0925 36.5627 61.1938 36.472C61.3005 36.376 61.3698 36.2507 61.4018 36.096C61.4338 35.9573 61.4205 35.8453 61.3618 35.76C61.3031 35.6693 61.1938 35.624 61.0338 35.624C60.8631 35.624 60.7298 35.6667 60.6338 35.752C60.5378 35.832 60.4765 35.936 60.4498 36.064C60.4285 36.1707 60.4445 36.28 60.4978 36.392C60.5565 36.504 60.6445 36.6267 60.7618 36.76ZM60.2098 39.2C60.4071 39.2 60.5805 39.176 60.7298 39.128C60.8845 39.0747 61.0231 38.9973 61.1458 38.896L60.3778 37.888C59.9191 38.0427 59.6551 38.2933 59.5858 38.64C59.5485 38.8213 59.5831 38.96 59.6898 39.056C59.8018 39.152 59.9751 39.2 60.2098 39.2ZM63.6319 40L64.7199 34.848H67.3759C67.8879 34.848 68.2612 34.976 68.4959 35.232C68.7305 35.488 68.8025 35.8293 68.7119 36.256C68.6532 36.528 68.5519 36.7573 68.4079 36.944C68.2692 37.1253 68.1012 37.2667 67.9039 37.368C68.1225 37.4533 68.2799 37.5867 68.3759 37.768C68.4719 37.944 68.4879 38.184 68.4239 38.488C68.3225 38.9787 68.1065 39.3547 67.7759 39.616C67.4505 39.872 67.0025 40 66.4319 40H63.6319ZM65.5679 36.944H66.6159C66.8399 36.944 67.0132 36.8933 67.1359 36.792C67.2585 36.6907 67.3385 36.5493 67.3759 36.368C67.4185 36.1707 67.3999 36.024 67.3199 35.928C67.2399 35.8267 67.0665 35.776 66.7999 35.776H65.8159L65.5679 36.944ZM65.1119 39.08H66.2879C66.5492 39.08 66.7385 39.032 66.8559 38.936C66.9785 38.84 67.0665 38.6693 67.1199 38.424C67.1625 38.2267 67.1385 38.08 67.0479 37.984C66.9572 37.8827 66.7759 37.832 66.5039 37.832H65.3759L65.1119 39.08Z" fill="white"/>
<g clip-path="url(#clip0_1_332)">
<path d="M38.8945 16.9072C42.9305 11.1598 46.4731 6.06753 50.1055 1.03483C50.5871 0.507307 51.259 0.191416 51.974 0.156337C54.276 0.0521092 56.5929 0.111668 59.5077 0.111668L51.9291 11.1449H83.4469L83.9999 11.8894C80.5021 16.3563 77.3182 21.1656 73.357 25.1858C71.6455 26.9279 68.327 27.799 65.7186 27.8437C50.083 28.0968 34.4699 27.9702 18.7746 27.9702C15.3365 27.9702 15.202 24.7764 12.8328 22.4834H19.4323C33.8645 22.4834 48.2893 22.4834 62.7215 22.4834C66.6603 22.4834 69.052 20.4956 71.0401 16.87L38.8945 16.9072Z" fill="white"/>
<path d="M13.199 9.6634C15.1273 13.6241 17.6834 15.4853 21.5848 15.4406C26.6148 15.381 31.6373 15.4406 36.6673 15.4406C36.758 15.4552 36.8461 15.4828 36.9289 15.5225C35.9199 19.3342 34.2159 20.7339 30.591 20.7339C26.4056 20.7339 22.2176 20.7339 18.0272 20.7339C14.6938 20.7339 11.637 19.6767 9.55921 17.1231C6.28561 13.1178 3.37076 8.81469 0 4.22123C1.49479 4.15423 2.49631 4.07234 3.46792 4.06489C13.8044 4.06489 24.1409 4.10956 34.4774 4.00533C35.5836 4.00533 37.2054 3.4023 37.6763 2.56848C38.9319 0.335033 40.6659 -0.200994 42.9754 1.67564e-05C44.6122 0.134024 46.2714 1.67564e-05 48.5061 1.67564e-05C46.2041 3.2683 44.2908 6.17922 42.1233 8.93381C41.645 9.5294 40.2772 9.5964 39.3206 9.60385C31.7793 9.65596 24.2381 9.60385 16.6969 9.60385L13.199 9.6634Z" fill="white"/>
</g>
<defs>
<clipPath id="clip0_1_332">
<rect width="84" height="28" fill="white"/>
</clipPath>
</defs>
</svg>
