<svg id="Capa_1" data-name="Capa 1" xmlns="http://www.w3.org/2000/svg" xmlns:xlink="http://www.w3.org/1999/xlink" viewBox="0 0 176 32.13"><defs><style>.cls-1{fill:url(#linear-gradient);}.cls-2{fill:url(#linear-gradient-2);}.cls-3{fill:url(#linear-gradient-3);}.cls-4{fill:url(#linear-gradient-4);}.cls-5{fill:url(#linear-gradient-5);}.cls-6{fill:url(#linear-gradient-6);}.cls-7{fill:url(#linear-gradient-7);}.cls-8{fill:url(#linear-gradient-8);}.cls-9{fill:url(#linear-gradient-9);}.cls-10{fill:url(#linear-gradient-10);}.cls-11{fill:url(#linear-gradient-11);}.cls-12{fill:url(#linear-gradient-12);}.cls-13{fill:url(#linear-gradient-13);}</style><linearGradient id="linear-gradient" x1="114" y1="18.17" x2="114" y2="31.93" gradientUnits="userSpaceOnUse"><stop offset="0" stop-color="#1d76b6"/><stop offset="0.97" stop-color="#205887"/></linearGradient><linearGradient id="linear-gradient-2" x1="135.19" y1="22.97" x2="135.19" y2="36.83" xlink:href="#linear-gradient"/><linearGradient id="linear-gradient-3" x1="144.66" y1="18.17" x2="144.66" y2="31.93" xlink:href="#linear-gradient"/><linearGradient id="linear-gradient-4" x1="161.89" y1="18.17" x2="161.89" y2="31.93" xlink:href="#linear-gradient"/><linearGradient id="linear-gradient-5" x1="180.47" y1="31.34" x2="180.47" y2="37.02" xlink:href="#linear-gradient"/><linearGradient id="linear-gradient-6" x1="146.64" y1="17.35" x2="146.64" y2="21.19" xlink:href="#linear-gradient"/><linearGradient id="linear-gradient-7" x1="147.81" y1="13.2" x2="147.81" y2="17.04" xlink:href="#linear-gradient"/><linearGradient id="linear-gradient-8" x1="149.2" y1="9.05" x2="149.2" y2="12.89" xlink:href="#linear-gradient"/><linearGradient id="linear-gradient-9" x1="150.84" y1="4.9" x2="150.84" y2="8.74" xlink:href="#linear-gradient"/><linearGradient id="linear-gradient-10" x1="18.03" y1="1.27" x2="18.03" y2="32.13" gradientUnits="userSpaceOnUse"><stop offset="0" stop-color="#e73238"/><stop offset="0.97" stop-color="#b72f30"/></linearGradient><linearGradient id="linear-gradient-11" x1="57.68" y1="5.95" x2="57.68" y2="37.02" xlink:href="#linear-gradient-10"/><linearGradient id="linear-gradient-12" x1="76.13" y1="1.27" x2="76.13" y2="32.13" xlink:href="#linear-gradient-10"/><linearGradient id="linear-gradient-13" x1="97.49" y1="1.27" x2="97.49" y2="32.13" xlink:href="#linear-gradient-10"/></defs><polygon class="cls-1" points="112.34 20.96 107.73 20.96 107.73 18.17 120.27 18.17 120.27 20.96 115.66 20.96 115.66 31.93 112.34 31.93 112.34 20.96"/><path class="cls-2" d="M133.66,23h3.07l6.48,13.86h-3.48l-1.38-3.09H132l-1.38,3.09h-3.4Zm3.5,8.1-2-4.46-2,4.46Z" transform="translate(-7.6 -4.9)"/><polygon class="cls-3" points="137.94 18.17 141.01 18.17 148.09 26.64 148.09 18.17 151.38 18.17 151.38 31.93 148.55 31.93 141.22 23.18 141.22 31.93 137.94 31.93 137.94 18.17"/><polygon class="cls-4" points="155 18.17 158.33 18.17 158.33 24.19 164.47 18.17 168.49 18.17 162.33 24.01 168.77 31.93 164.77 31.93 160.08 26.07 158.33 27.73 158.33 31.93 155 31.93 155 18.17"/><path class="cls-5" d="M177.35,34.2v0a3.14,3.14,0,0,1,6.25,0v0A3,3,0,0,1,180.46,37a3,3,0,0,1-3.11-2.82m5.89,0v0a2.78,2.78,0,0,0-5.53,0v0a2.6,2.6,0,0,0,2.75,2.51,2.64,2.64,0,0,0,2.78-2.53m-4.05-1.6h1.47a1.5,1.5,0,0,1,1,.33.89.89,0,0,1,.28.66v0a1,1,0,0,1-.72.93l.81,1.09h-.85l-.71-1h-.58v1h-.73Zm1.46,1.48c.38,0,.57-.18.57-.43v0c0-.29-.22-.44-.58-.44h-.72v.89Z" transform="translate(-7.6 -4.9)"/><path class="cls-6" d="M175.51,18.51a10.08,10.08,0,0,1-8.36,0,12,12,0,0,0-10.32,0,10.08,10.08,0,0,1-8.36,0,12,12,0,0,0-10.32,0,10.08,10.08,0,0,1-8.36,0,12,12,0,0,0-10.32,0,10.08,10.08,0,0,1-8.36,0l-.35-.19-1.08,1.47.45.24a12,12,0,0,0,10.32,0,10,10,0,0,1,8.36,0,12,12,0,0,0,10.32,0,10,10,0,0,1,8.36,0,12,12,0,0,0,10.32,0,10,10,0,0,1,8.36,0,12,12,0,0,0,10.32,0,10.16,10.16,0,0,1,7.11-.5V17.69a12.09,12.09,0,0,0-8.09.82" transform="translate(-7.6 -4.9)"/><path class="cls-7" d="M175.51,14.36a10.08,10.08,0,0,1-8.36,0,12,12,0,0,0-10.32,0,10.08,10.08,0,0,1-8.36,0,12,12,0,0,0-10.32,0,10.08,10.08,0,0,1-8.36,0,12,12,0,0,0-10.32,0,10.15,10.15,0,0,1-6.3.7L112,16.61a12.17,12.17,0,0,0,8.42-.73,10.08,10.08,0,0,1,8.36,0,12,12,0,0,0,10.32,0,10.08,10.08,0,0,1,8.36,0,12,12,0,0,0,10.32,0,10.08,10.08,0,0,1,8.36,0,12,12,0,0,0,10.32,0,10.21,10.21,0,0,1,7.11-.5V13.54a12.15,12.15,0,0,0-8.09.82" transform="translate(-7.6 -4.9)"/><path class="cls-8" d="M175.51,10.21a10.08,10.08,0,0,1-8.36,0,12,12,0,0,0-10.32,0,10.08,10.08,0,0,1-8.36,0,12,12,0,0,0-10.32,0,10.08,10.08,0,0,1-8.36,0,12,12,0,0,0-10.32,0,8.71,8.71,0,0,1-3.36.87l-1.32,1.8a11.5,11.5,0,0,0,5.66-1.15,10.08,10.08,0,0,1,8.36,0,12,12,0,0,0,10.32,0,10.08,10.08,0,0,1,8.36,0,12,12,0,0,0,10.32,0,10.08,10.08,0,0,1,8.36,0,12,12,0,0,0,10.32,0,10.21,10.21,0,0,1,7.11-.5V9.39a12.15,12.15,0,0,0-8.09.82" transform="translate(-7.6 -4.9)"/><path class="cls-9" d="M175.51,6.06a10.08,10.08,0,0,1-8.36,0,12,12,0,0,0-10.32,0,10.08,10.08,0,0,1-8.36,0,12,12,0,0,0-10.32,0,10.08,10.08,0,0,1-8.36,0A12.18,12.18,0,0,0,120,5.79l-2,2.65a9.33,9.33,0,0,0,2.38-.86,10.08,10.08,0,0,1,8.36,0,12,12,0,0,0,10.32,0,10.08,10.08,0,0,1,8.36,0,12,12,0,0,0,10.32,0,10.08,10.08,0,0,1,8.36,0,12,12,0,0,0,10.32,0,10.21,10.21,0,0,1,7.11-.5V5.24a12.15,12.15,0,0,0-8.09.82" transform="translate(-7.6 -4.9)"/><polygon class="cls-10" points="0 1.27 9.93 1.27 18.03 13.22 26.12 1.27 36.05 1.27 36.05 32.13 26.7 32.13 26.7 14.41 18.03 26.49 17.83 26.49 9.21 14.5 9.21 32.13 0 32.13 0 1.27"/><path class="cls-11" d="M53.15,6h9.06L76.65,37H66.58l-2.48-5.5H51L48.6,37H38.71Zm8.24,18.91-3.78-8.77-3.83,8.77Z" transform="translate(-7.6 -4.9)"/><polygon class="cls-12" points="70.56 16.44 59.41 1.27 70.22 1.27 76.23 9.96 82.29 1.27 92.85 1.27 81.71 16.35 93.34 32.13 82.53 32.13 76.04 22.83 69.49 32.13 58.93 32.13 70.56 16.44"/><polygon class="cls-13" points="96.73 16.35 107.96 1.27 97.75 1.27 86.52 16.35 98.24 32.13 108.45 32.13 96.73 16.35"/></svg>