<svg width="64" height="65" viewBox="0 0 64 65" fill="none" xmlns="http://www.w3.org/2000/svg">
<g clip-path="url(#clip0_1_203)">
<path d="M28.0666 64.5013C26.7 64.3018 25.3166 64.1356 23.95 63.8696C12.35 61.6087 2.78329 52.0499 0.749955 40.4463C-1.26671 28.876 2.31662 19.2174 11.3 11.6368C15.6666 7.94631 20.8333 5.90155 26.5333 5.25322C27.2333 5.1701 27.9333 5.1036 28.7333 5.0371C28.7333 4.72125 28.7333 4.42201 28.7333 4.12278C28.7833 1.9949 30.3333 0.598485 32.45 0.814598C44.1 1.9949 53.05 7.53071 59.1833 17.4885C61.8166 21.7775 63.2999 26.4655 63.7666 31.486C63.8166 32.0179 63.9 32.5665 63.8333 33.0985C63.6166 34.6778 62.3666 35.7417 60.6833 35.8415C60.35 35.8581 60.0166 35.8415 59.6166 35.8415C59.5333 36.6062 59.4833 37.3542 59.3999 38.0857C58 51.0857 47.9333 61.8248 35.0666 64.0358C33.9 64.2353 32.7333 64.3683 31.55 64.5179C30.4 64.5013 29.2333 64.5013 28.0666 64.5013ZM28.7333 7.26473C20.0833 7.33122 9.16662 12.6177 4.28329 24.0883C-0.300045 34.8108 2.58329 47.6113 11.35 55.3414C20.4166 63.3376 33.2833 64.6675 43.7 58.6496C48.7833 55.7072 52.5333 51.5512 55 46.2315C56.5166 42.9565 57.35 39.4987 57.45 35.8248C57.0833 35.8248 56.7833 35.8248 56.5 35.8248C55.1833 35.8082 53.8833 35.8581 52.5666 35.775C50.7999 35.6586 49.3666 34.4118 48.9 32.6995C48.7666 32.2174 48.7166 31.7187 48.6166 31.2366C46.8666 23.0243 40.7166 17.1893 32.4 15.8261C30.4166 15.4936 28.9666 14.0141 28.8 12.0192C28.7 10.6727 28.75 9.32611 28.75 7.97956C28.7333 7.74682 28.7333 7.49746 28.7333 7.26473ZM56.7833 33.697C58.0333 33.697 59.2833 33.7136 60.5166 33.697C61.4 33.6803 61.7999 33.2315 61.7333 32.3504C61.5166 29.9233 61.0833 27.5461 60.3333 25.2353C56.2999 12.7174 45.4333 4.07291 32.2833 2.92585C31.35 2.84273 30.8666 3.25833 30.8666 4.2059C30.85 6.61639 30.85 9.01025 30.8666 11.4207C30.8833 12.8005 31.5 13.5154 32.8833 13.7481C37.2333 14.4796 41.0666 16.2916 44.2833 19.3172C47.8166 22.642 49.9833 26.6982 50.7999 31.4693C51.0666 33.0652 51.7833 33.6637 53.4166 33.6803C54.5333 33.697 55.65 33.697 56.7833 33.697Z" fill="white"/>
<path d="M13.85 34.7443C13.8667 25.9668 21.0167 18.8517 29.8167 18.8351C38.6333 18.8351 45.8 26 45.8 34.7942C45.7833 43.5883 38.6 50.72 29.7667 50.6867C20.9667 50.6701 13.8333 43.5218 13.85 34.7443ZM29.7667 48.5755C37.4 48.5921 43.6333 42.4246 43.65 34.8108C43.6667 27.197 37.4833 20.9796 29.85 20.963C22.2333 20.9297 15.9833 27.1305 15.9667 34.7277C15.95 42.3415 22.1333 48.5589 29.7667 48.5755Z" fill="white"/>
<path d="M53.75 41.8427C53.5 42.142 53.3167 42.5576 53.0167 42.6739C52.7167 42.7903 52.1667 42.757 51.9333 42.5576C50.55 41.3274 49.2166 40.0473 47.9 38.7507C47.5 38.3517 47.55 37.7366 47.9333 37.3376C48.3167 36.9386 48.9166 36.8555 49.3333 37.2545C50.6833 38.4847 52 39.7481 53.3166 41.0281C53.5166 41.211 53.5833 41.4936 53.75 41.8427Z" fill="white"/>
<path d="M11.5166 51.3517C10.95 51.3517 10.5333 51.0026 10.45 50.4872C10.3666 49.922 10.6166 49.4898 11.2 49.3069C12.45 48.9245 13.7 48.5588 14.95 48.1931C15.4333 48.0601 15.9 47.8939 16.3833 47.7775C16.9666 47.6445 17.4833 47.9437 17.65 48.4923C17.8166 48.991 17.5666 49.5895 17.0333 49.7557C15.25 50.3043 13.4666 50.8031 11.6666 51.3184C11.6333 51.3517 11.5666 51.3517 11.5166 51.3517Z" fill="white"/>
<path d="M46.4499 52.9143C46.4166 53.5793 46.1499 53.945 45.6166 54.0614C45.0332 54.1944 44.5666 53.9284 44.3666 53.3133C43.9499 51.9668 43.5666 50.6202 43.1666 49.2737C43.0666 48.9578 42.9832 48.642 42.8999 48.3261C42.7166 47.6279 42.9999 47.0793 43.6332 46.9131C44.2166 46.7468 44.7332 47.0793 44.9332 47.7609C45.2666 48.8082 45.5666 49.8555 45.8666 50.9195C46.0832 51.601 46.2832 52.3159 46.4499 52.9143Z" fill="white"/>
<path d="M16.8 21.6611C16.7333 22.2097 16.45 22.5755 15.9167 22.6752C15.3833 22.775 14.9167 22.5422 14.7667 22.0435C14.2167 20.2647 13.6833 18.486 13.2 16.6906C13.05 16.1253 13.4 15.6266 13.9167 15.477C14.45 15.3274 15.0333 15.5435 15.2 16.0755C15.7667 17.8709 16.2667 19.6829 16.8 21.4783C16.8167 21.5614 16.8 21.6279 16.8 21.6611Z" fill="white"/>
<path d="M36.45 53.3632C36.3333 53.8619 36.1833 54.4936 36.0333 55.1087C35.75 56.2558 35.4833 57.4028 35.1833 58.5332C35.0166 59.1483 34.4666 59.4974 33.9166 59.3644C33.3166 59.2315 32.9833 58.6662 33.1333 58.0345C33.5166 56.3721 33.9333 54.6931 34.3333 53.0307C34.5 52.3824 34.9833 52.0499 35.55 52.133C36.1166 52.2161 36.4666 52.6483 36.45 53.3632Z" fill="white"/>
<path d="M12.1999 30.4885C11.9666 30.7711 11.7833 31.1867 11.4833 31.3031C11.1833 31.4361 10.6166 31.4028 10.3999 31.2033C9.01659 29.9732 7.69992 28.6931 6.38326 27.4131C5.96659 27.0141 6.03326 26.4156 6.41659 26.0166C6.79992 25.6177 7.38326 25.5179 7.81659 25.9169C9.18326 27.1637 10.4999 28.4437 11.8166 29.7238C11.9833 29.8734 12.0333 30.156 12.1999 30.4885Z" fill="white"/>
<path d="M21.6833 58.5333C21.3666 58.2673 21.0166 58.0844 20.8166 57.7852C20.55 57.3862 20.6666 56.9374 21 56.5883C21.75 55.7903 22.5166 54.9924 23.2666 54.211C23.7166 53.7456 24.15 53.2801 24.6 52.8312C25.1 52.3325 25.7 52.3159 26.15 52.7481C26.5833 53.1471 26.5833 53.8121 26.1166 54.2942C24.9333 55.541 23.75 56.7878 22.55 58.0179C22.3666 58.2174 22.05 58.3172 21.6833 58.5333Z" fill="white"/>
<path d="M25.2333 10.1905C26.0833 10.1739 26.6333 10.7391 26.4833 11.4207C26.0833 13.1829 25.6667 14.9284 25.2167 16.6573C25.0667 17.2558 24.5167 17.5384 23.9667 17.3888C23.3667 17.2391 23.05 16.7404 23.2167 16.0422C23.6 14.3632 24.0167 12.7008 24.4333 11.0384C24.4667 10.922 24.4833 10.7724 24.5667 10.7059C24.8167 10.4732 25.1 10.2903 25.2333 10.1905Z" fill="white"/>
<path d="M11.1833 41.3939C10.85 41.3108 10.4 41.211 9.96663 41.1113C8.69996 40.8121 7.4333 40.5128 6.16663 40.197C5.4333 40.0141 5.06663 39.5154 5.19997 38.9169C5.3333 38.2686 5.8833 37.9527 6.6333 38.1356C8.2833 38.5179 9.9333 38.9169 11.5833 39.3325C12.2 39.4988 12.5 39.9642 12.4166 40.5295C12.3 41.0614 11.8666 41.4105 11.1833 41.3939Z" fill="white"/>
<path d="M35.1332 10.3235C35.1499 10.9054 34.6832 11.3875 34.0832 11.3875C33.4999 11.3875 33.0499 10.9719 33.0332 10.39C32.9999 9.79158 33.4499 9.29286 34.0332 9.27624C34.5999 9.25961 35.1166 9.74171 35.1332 10.3235Z" fill="white"/>
<path d="M55.3499 30.5218C55.3499 31.1036 54.8499 31.5691 54.2666 31.5525C53.6666 31.5358 53.2166 31.0704 53.2499 30.4719C53.2666 29.9067 53.7332 29.4578 54.2832 29.4578C54.8666 29.4578 55.3666 29.9565 55.3499 30.5218Z" fill="white"/>
<path d="M22.35 34.6944C22.3833 30.6381 25.7666 27.2967 29.8333 27.3133C33.9333 27.3299 37.3 30.7212 37.2666 34.7941C37.2333 38.8836 33.85 42.2417 29.7666 42.2084C25.6666 42.1752 22.3166 38.7839 22.35 34.6944ZM35.1333 34.7941C35.15 31.8849 32.7833 29.491 29.85 29.4578C26.95 29.4245 24.5166 31.8018 24.4833 34.711C24.45 37.6202 26.8666 40.0639 29.8 40.0806C32.7166 40.0972 35.1166 37.7033 35.1333 34.7941Z" fill="white"/>
<path d="M26.4999 45.9322C25.9166 45.9156 25.4333 45.4003 25.4666 44.8351C25.4833 44.2366 25.9833 43.8044 26.5833 43.8376C27.1499 43.8709 27.5833 44.3197 27.5833 44.8849C27.5666 45.4501 27.0666 45.9489 26.4999 45.9322Z" fill="white"/>
<path d="M26.4999 23.6061C27.0833 23.5895 27.5666 24.0716 27.5833 24.6534C27.5833 25.2187 27.1666 25.6841 26.5833 25.7008C25.9833 25.734 25.4833 25.2852 25.4666 24.7033C25.4333 24.1381 25.9166 23.6228 26.4999 23.6061Z" fill="white"/>
<path d="M18.0999 34.711C18.1333 34.1292 18.6333 33.6969 19.2333 33.7302C19.8333 33.7634 20.2666 34.2622 20.2166 34.8606C20.1666 35.4258 19.6833 35.8581 19.1333 35.8248C18.5333 35.7916 18.0666 35.2929 18.0999 34.711Z" fill="white"/>
<path d="M39.4666 40.9783C39.4832 41.5767 39.0166 42.0588 38.4332 42.0755C37.8499 42.0755 37.3666 41.5934 37.3666 41.0115C37.3666 40.4463 37.8166 39.9808 38.3832 39.9642C38.9832 39.9476 39.4499 40.3798 39.4666 40.9783Z" fill="white"/>
<path d="M39.4666 28.5269C39.4666 29.1253 39 29.5742 38.4 29.5742C37.8333 29.5575 37.3833 29.1253 37.3666 28.5601C37.35 27.9783 37.8333 27.4795 38.4166 27.4795C38.9833 27.4629 39.4666 27.945 39.4666 28.5269Z" fill="white"/>
<path d="M32.9999 34.7609C32.9999 36.523 31.5332 37.9859 29.7832 37.9527C28.0499 37.9361 26.6166 36.5064 26.6166 34.7609C26.6166 32.9987 28.0666 31.5524 29.8332 31.5691C31.5832 31.6023 32.9999 33.0153 32.9999 34.7609ZM30.8499 34.7941C30.8666 34.1957 30.4166 33.7302 29.8166 33.7302C29.2166 33.7302 28.7499 34.1956 28.7499 34.7775C28.7499 35.3427 29.1999 35.8082 29.7666 35.8248C30.3499 35.8414 30.8499 35.376 30.8499 34.7941Z" fill="white"/>
</g>
<defs>
<clipPath id="clip0_1_203">
<rect width="64" height="65" fill="white"/>
</clipPath>
</defs>
</svg>
