<svg width="44" height="61" viewBox="0 0 44 61" fill="none" xmlns="http://www.w3.org/2000/svg">
<g clip-path="url(#clip0_1_148)">
<path d="M3.92146 61C3.46125 60.6578 3.35665 60.1914 3.36953 59.6455C3.39688 58.5314 3.36953 57.4284 3.36953 56.3652C2.91414 56.1806 2.47968 56.0708 2.11923 55.8463C1.38386 55.388 1.19559 54.6558 1.1972 53.8345C1.20686 50.0147 1.1972 46.2123 1.1972 42.4004C1.1972 42.0041 1.16985 41.6046 1.1972 41.2099C1.37903 38.9275 0.864114 36.7439 0.403903 34.5252C-1.58498 24.8354 3.72997 14.7621 12.8875 10.7211C13.4539 10.4712 14.0268 10.2277 14.6141 10.0303C14.9601 9.9157 15.0711 9.74062 15.0679 9.39365C15.0534 7.48372 15.0582 5.58334 15.0679 3.67818C15.0679 1.3035 16.3938 0.00793457 18.8011 0.00793457C20.9884 0.00793457 23.1757 0.00793457 25.3631 0.00793457C27.5209 0.00793457 28.9032 1.35125 28.9144 3.49674C28.9327 5.44169 28.9327 7.38663 28.9144 9.33158C28.9144 9.73744 29.0496 9.90137 29.4294 10.051C37.475 13.204 42.3249 18.964 43.7506 27.425C44.2913 30.6369 43.9727 33.8328 42.9959 36.9555C42.8611 37.3893 42.7911 37.8403 42.7883 38.2941C42.7744 43.3363 42.7712 48.3764 42.7787 53.4144C42.7787 55.4978 42.2879 56.0469 40.1284 56.2904C40.1284 57.4045 40.1107 58.5187 40.1365 59.6471C40.1494 60.1946 40.0432 60.6578 39.5862 61.0016H38.8637C38.4051 60.6594 38.3005 60.193 38.3134 59.6471C38.3391 58.5234 38.3214 57.3982 38.3214 56.292C36.7042 55.9641 36.1555 55.2941 36.1539 53.7152C36.1539 51.7702 36.1539 49.8253 36.1539 47.8803C36.1539 47.675 36.1346 47.4713 36.1265 47.309C26.6697 53.946 17.2885 53.938 7.87348 47.2994C7.87348 47.4586 7.85095 47.64 7.85095 47.8167C7.85095 49.8858 7.86382 51.9453 7.85095 54.0096C7.83807 55.3816 7.0142 56.1885 5.64644 56.2379C5.51128 56.2379 5.37933 56.2681 5.20715 56.2888C5.20715 57.4284 5.18784 58.5378 5.2152 59.6471C5.22807 60.1946 5.12026 60.6578 4.66487 61.0016L3.92146 61ZM28.9144 11.7938C28.9144 12.6612 28.9482 13.4745 28.9016 14.2815C28.8726 14.7956 29.0625 15.0407 29.5227 15.2651C36.5739 18.6552 40.4648 26.5273 38.788 33.976C36.7396 43.0912 28.2225 48.7478 18.888 47.1864C9.55341 45.625 3.14907 36.252 5.18462 27.086C6.39308 21.6474 9.55823 17.6955 14.5851 15.1823C14.7638 15.0948 15.0277 14.9261 15.0325 14.786C15.0711 13.8056 15.0534 12.822 15.0534 11.8145C7.78336 14.2385 0.522978 22.4655 2.01947 33.2821C3.35826 42.975 11.7724 50.3123 21.8278 50.4603C31.7175 50.5988 40.4535 43.3172 41.9419 33.4206C43.498 23.0019 36.7187 14.4932 28.9144 11.7938ZM28.8855 22.6931C28.8855 23.5606 28.9337 24.2927 28.8758 25.0185C28.8214 25.8208 28.4619 26.5731 27.8697 27.124C27.2774 27.675 26.4963 27.9838 25.6833 27.9884C23.216 28.0171 20.7486 28.0171 18.2813 27.9884C17.469 27.9775 16.6904 27.665 16.1002 27.1128C15.51 26.5605 15.1513 25.809 15.0952 25.0073C15.047 24.4153 15.0759 23.8168 15.0598 23.2215C15.0464 23.0671 15.0243 22.9136 14.9939 22.7616C10.8101 26.3093 10.0345 33.1309 14.3003 37.6161C15.2935 38.6738 16.4988 39.515 17.8391 40.0861C19.1795 40.6572 20.6255 40.9456 22.0849 40.9328C23.5443 40.9201 24.9849 40.6065 26.3149 40.0122C27.6449 39.4178 28.8349 38.5556 29.8091 37.4808C34.0395 32.8285 32.971 26.088 28.8855 22.6931ZM27.1058 14.0252C27.1058 10.5523 27.1058 7.07998 27.1058 3.60815C27.1058 2.32532 26.5587 1.79054 25.281 1.78894C23.0733 1.78894 20.8661 1.78894 18.6595 1.78894C17.4478 1.78894 16.8765 2.33327 16.8749 3.52539C16.8685 10.5115 16.8685 17.4965 16.8749 24.4805C16.8749 25.6663 17.4542 26.209 18.6675 26.2106C20.813 26.2106 22.9585 26.2106 25.104 26.2106C26.6263 26.2106 27.1042 25.7331 27.1042 24.2036C27.1074 20.8113 27.1079 17.4185 27.1058 14.0252ZM28.9144 16.9522C28.9144 17.9231 28.9563 18.7746 28.9 19.6197C28.8629 20.1816 29.0705 20.511 29.5114 20.8469C31.6562 22.4699 33.2012 24.7461 33.908 27.3241C34.6147 29.9021 34.4437 32.6385 33.4216 35.1109C31.3217 40.204 26.0051 43.3777 20.489 42.6105C15.3093 41.8895 11.7306 39.0008 10.2148 34.0365C8.69896 29.0723 10.0635 24.689 14.0123 21.2416C14.833 20.5254 15.195 19.8744 15.0743 18.8542C15.0051 18.2653 15.0615 17.6621 15.0615 17.0095C9.70627 19.5083 5.34071 26.0992 6.97719 33.688C8.56057 41.0428 15.4203 46.241 23.371 45.6457C30.4512 45.1141 36.5996 39.1854 37.2674 32.0486C37.6166 28.2924 36.7235 24.8418 34.5319 21.7429C33.0924 19.7079 31.1614 18.061 28.9144 16.9522ZM3.07827 41.7813C3.05343 41.8182 3.03696 41.86 3.03 41.9038C3.03 45.9296 3.02678 49.9547 3.02035 53.9794C3.02035 54.3391 3.20379 54.4569 3.55136 54.4569C4.17248 54.441 4.79521 54.4282 5.41473 54.4569C5.90712 54.4823 6.03424 54.2643 6.03263 53.8202C6.02137 51.1622 6.03263 48.5058 6.01815 45.8479C6.0156 45.6163 5.9421 45.391 5.80735 45.2017C4.9159 44.0573 4.00191 42.932 3.07827 41.7813ZM40.9234 41.611C40.3875 42.3686 40.0464 43.0848 39.4993 43.5798C38.1026 44.8531 37.7952 46.3715 37.9191 48.1636C38.0478 50.0179 37.9626 51.888 37.94 53.7518C37.932 54.2961 38.1154 54.5046 38.6722 54.4553C39.1549 54.4139 39.6377 54.4473 40.1204 54.4473C40.9604 54.4473 40.9636 54.4473 40.9636 53.6324C40.9636 49.8667 40.9636 46.0999 40.9636 42.332C40.9571 42.1442 40.9394 41.9548 40.9234 41.611Z" fill="white"/>
<path d="M21.9389 12.9732C22.6936 12.9732 23.4482 12.9828 24.2013 12.9732C24.6615 12.9637 25.0493 13.0703 25.2279 13.5255C25.4066 13.9807 25.2167 14.3213 24.89 14.6396C23.5802 15.9225 22.2832 17.2196 20.9734 18.5041C20.4907 18.9736 19.9902 19.0166 19.5944 18.6505C19.1985 18.2844 19.2243 17.7178 19.7038 17.2419C20.5331 16.4573 21.3189 15.629 22.058 14.7606H20.6645C20.3426 14.7606 20.0015 14.829 19.699 14.7431C19.3643 14.6444 18.8944 14.4709 18.8027 14.2147C18.7567 14.0341 18.7532 13.8454 18.7925 13.6633C18.8318 13.4812 18.913 13.3104 19.0296 13.1642C20.2219 11.9068 21.4706 10.702 22.7113 9.49077C23.1409 9.07218 23.6767 9.05467 24.0484 9.4096C24.4202 9.76453 24.4121 10.3136 23.9937 10.7306C23.2906 11.4325 22.56 12.109 21.8407 12.7997L21.9389 12.9732Z" fill="white"/>
</g>
<defs>
<clipPath id="clip0_1_148">
<rect width="44" height="61" fill="white"/>
</clipPath>
</defs>
</svg>
