<svg width="60" height="60" viewBox="0 0 60 60" fill="none" xmlns="http://www.w3.org/2000/svg">
<g clip-path="url(#clip0_1_139)">
<path d="M58.9777 10.411C60.3459 9.00196 60.3381 7.10137 58.9652 5.71429C57.4342 4.15708 55.8886 2.61031 54.3284 1.07397C52.8616 -0.374166 50.9752 -0.353814 49.5068 1.10529C48.6208 1.98513 47.7426 2.87437 46.8566 3.75421C46.5262 4.08141 46.2038 4.62309 45.8406 4.65597C45.4774 4.68885 45.1596 4.09237 44.8262 3.76986C43.3703 2.36086 41.4715 2.34051 40.0391 3.76047C38.1533 5.62975 36.2747 7.50842 34.4035 9.39648C33.0103 10.8055 33.0259 12.7155 34.4239 14.137C34.9295 14.6521 35.4336 15.1703 35.9611 15.6618C36.1772 15.8638 36.1458 15.975 35.9611 16.1644C35.1534 16.9566 34.3472 17.7519 33.5629 18.5675C33.3359 18.8039 33.2122 18.7679 33.0103 18.555C32.5125 18.0305 31.9974 17.5249 31.4808 17.0192C30.144 15.7104 28.1339 15.6822 26.8597 16.9472C25.5854 18.2121 25.5839 20.2114 26.8957 21.5656C27.4175 22.0978 27.9424 22.6197 28.4705 23.1311C28.6505 23.3033 28.7304 23.4114 28.4987 23.6258C27.9398 24.144 27.4029 24.6795 26.88 25.2352C26.6577 25.4732 26.5497 25.3793 26.3791 25.2039C25.875 24.6821 25.3647 24.1712 24.8481 23.6712C23.4643 22.3217 21.4824 22.292 20.1894 23.5977C18.8963 24.9033 18.937 26.8431 20.2614 28.2145C20.7623 28.7363 21.2732 29.2467 21.7939 29.7456C21.9865 29.9319 22.082 30.0587 21.8237 30.2904C21.2758 30.7898 20.7545 31.319 20.2488 31.856C20.0219 32.0986 19.8982 32.0125 19.7119 31.8231C19.1828 31.2767 18.649 30.7272 18.0964 30.209C16.7861 28.9566 14.8199 28.9691 13.566 30.209C12.3121 31.4489 12.2933 33.4654 13.5566 34.7867C14.0419 35.2955 14.5287 35.8043 15.05 36.274C15.3631 36.5589 15.3929 36.7249 15.0657 37.0411C13.638 38.4297 12.226 39.834 10.839 41.2681C10.6712 41.4604 10.46 41.6099 10.2229 41.7044C9.98578 41.7989 9.7296 41.8355 9.47552 41.8113C5.66369 41.6548 2.29957 43.7777 0.754482 47.2438C0.40539 48.0266 0.284852 48.872 0.00463867 49.6673V52.1284C0.247281 52.5526 0.228496 53.0505 0.381908 53.5014C1.5706 56.9988 3.96415 59.1196 7.56256 59.8638C7.66901 59.8857 7.80364 59.8434 7.85686 59.9906H10.0829C10.1158 59.9029 10.1878 59.8967 10.2676 59.8904C11.3203 59.8073 12.3422 59.4959 13.2623 58.9777C16.6656 57.0844 18.3035 54.1855 18.1762 50.281C18.1668 49.993 18.1355 49.7378 18.3907 49.4873C19.9561 47.9572 21.5022 46.412 23.0291 44.8517C23.2764 44.5996 23.4063 44.6372 23.6239 44.8689C24.1332 45.4074 24.6576 45.9293 25.1972 46.4344C26.5262 47.6869 28.5331 47.6869 29.7761 46.4188C31.019 45.1507 31.0175 43.1734 29.7307 41.8442C29.1327 41.229 28.5081 40.6387 27.8522 39.9906C28.5065 39.3519 29.1437 38.7476 29.7557 38.1213C29.9561 37.9162 30.061 37.9898 30.2254 38.1511C30.7435 38.6818 31.2664 39.2094 31.7986 39.7245C33.1559 41.0427 35.1346 41.0677 36.4167 39.7918C37.6988 38.5159 37.6878 36.5417 36.3744 35.1718C35.8609 34.6364 35.3334 34.1151 34.7996 33.6063C34.6148 33.4294 34.5538 33.3229 34.7777 33.1084C35.4038 32.5151 35.9877 31.8904 36.6358 31.2297C37.2354 31.8466 37.7974 32.4415 38.3766 33.016C39.7776 34.4078 41.7705 34.4532 43.0729 33.135C44.3753 31.8168 44.3143 29.8568 42.9602 28.4728C42.4545 27.9577 41.9442 27.4458 41.4245 26.9448C41.2539 26.7789 41.21 26.6724 41.4057 26.4751C42.3043 25.5843 43.1856 24.6763 44.1045 23.7448C44.7808 24.4352 45.3913 25.0959 46.0441 25.7112C47.3231 26.9166 49.2219 26.9354 50.4821 25.7112C52.4806 23.7636 54.4547 21.79 56.4041 19.7902C57.6565 18.508 57.608 16.6137 56.3775 15.3049C56.1174 15.0139 55.8409 14.7379 55.5494 14.4783C55.2723 14.245 55.2817 14.0994 55.5494 13.8427C56.7037 12.7155 57.8464 11.5716 58.9777 10.411ZM9.13582 58.2325C7.6818 58.2393 6.25855 57.8138 5.04681 57.01C3.83508 56.2063 2.88953 55.0605 2.33024 53.7182C1.77095 52.3759 1.62315 50.8977 1.90561 49.4712C2.18807 48.0448 2.88804 46.7345 3.91665 45.7067C4.94525 44.6789 6.25608 43.9799 7.68266 43.6987C9.10925 43.4174 10.5872 43.5665 11.9289 44.127C13.2706 44.6875 14.4155 45.6341 15.2182 46.8466C16.0208 48.0591 16.4451 49.4828 16.437 50.937C16.4243 52.869 15.6508 54.7182 14.2841 56.0838C12.9174 57.4494 11.0677 58.2214 9.13582 58.2325ZM21.855 43.5616C20.4649 44.9252 19.0951 46.3092 17.6674 47.7385C16.4401 44.9753 14.9405 43.4755 12.345 42.3718C12.345 42.1636 12.5187 42.0838 12.633 41.9695C13.8572 40.7374 15.0939 39.5209 16.3055 38.2795C16.5748 38.0039 16.7204 37.9429 17.024 38.2528C18.5895 39.856 20.1862 41.4325 21.7705 43.0184C21.916 43.1765 22.1368 43.2845 21.855 43.5616ZM28.2498 42.854C28.6177 43.2204 28.9339 43.6023 28.9386 44.2254C28.9302 44.48 28.8531 44.7276 28.7152 44.9418C28.5774 45.156 28.3841 45.3288 28.1559 45.4419C27.934 45.5691 27.6815 45.6329 27.4258 45.6263C27.1701 45.6197 26.9212 45.5429 26.7063 45.4043C26.4961 45.2624 26.3033 45.0964 26.1318 44.9096L15.0845 33.8552C14.8043 33.5765 14.5225 33.2963 14.4411 32.8986C14.37 32.622 14.3833 32.3305 14.4793 32.0616C14.5753 31.7926 14.7495 31.5585 14.9796 31.3894C15.2098 31.2049 15.4922 31.0974 15.7868 31.0819C16.0814 31.0665 16.3735 31.1439 16.6217 31.3033C16.8145 31.4351 16.9924 31.5873 17.1524 31.7573C20.85 35.4521 24.5491 39.1509 28.2498 42.854ZM28.4971 36.9049C27.9586 37.4434 27.4013 37.9679 26.8863 38.5221C26.6797 38.7413 26.5607 38.6959 26.376 38.5096C24.7406 36.8626 23.0974 35.2209 21.4464 33.5843C21.2773 33.4153 21.2476 33.3072 21.4464 33.1256C22.0131 32.5886 22.5641 32.0297 23.1089 31.4787C23.2654 31.3127 23.3672 31.3221 23.53 31.4787C25.18 33.1402 26.8336 34.7966 28.4909 36.4477C28.5566 36.5135 28.6177 36.5855 28.7006 36.6779C28.6224 36.764 28.5629 36.8297 28.4909 36.9018L28.4971 36.9049ZM34.9874 36.3053C35.4445 36.7609 35.7138 37.2618 35.515 37.9272C35.4512 38.153 35.3335 38.3599 35.1721 38.5302C35.0107 38.7004 34.8103 38.8289 34.5882 38.9045C34.3661 38.9801 34.1289 39.0007 33.8972 38.9643C33.6654 38.928 33.4459 38.8359 33.2576 38.6959C33.1191 38.589 32.9893 38.4712 32.8694 38.3436C29.1301 34.6072 25.3913 30.8702 21.653 27.1327C21.3118 26.7914 21.0269 26.4313 21.0457 25.9162C21.0418 25.6479 21.1122 25.3836 21.2491 25.1528C21.3859 24.9219 21.584 24.7334 21.8213 24.608C22.0586 24.4826 22.3259 24.4253 22.5937 24.4423C22.8616 24.4593 23.1195 24.5501 23.339 24.7045C23.4808 24.8076 23.6123 24.924 23.7319 25.0521C27.4848 28.801 31.2366 32.5511 34.9874 36.3022V36.3053ZM35.1142 30.2982C34.5898 30.8227 34.0544 31.3362 33.5488 31.8716C33.3562 32.0736 33.2451 32.0877 33.0416 31.881C31.4104 30.2309 29.7709 28.5881 28.123 26.9526C27.907 26.7382 27.9664 26.627 28.1496 26.447C28.6834 25.9335 29.2125 25.4137 29.715 24.872C29.917 24.656 30.0281 24.6904 30.2207 24.8798C31.855 26.5268 33.4945 28.1691 35.1393 29.8067C35.2066 29.874 35.2645 29.9522 35.3459 30.0477C35.2645 30.1339 35.1925 30.2168 35.1142 30.2951V30.2982ZM41.7219 29.7534C42.3731 30.4078 42.3888 31.3002 41.8049 31.8935C41.1944 32.5198 40.3115 32.4994 39.6258 31.8137C35.8155 28.0104 32.01 24.203 28.2091 20.3914C27.6581 19.8387 27.5266 19.2329 27.8209 18.638C28.0948 18.0869 28.5488 17.791 29.2877 17.7973C29.6195 17.7863 29.9655 17.9883 30.2661 18.2873C34.0857 22.1083 37.9043 25.9293 41.7219 29.7503V29.7534ZM42.5563 22.865C41.7564 23.6384 40.9783 24.4305 40.1909 25.2133C40.1111 25.2947 40.0203 25.3699 39.9248 25.4513C39.8215 25.3526 39.7369 25.2759 39.6555 25.1945C38.0416 23.5804 36.4339 21.9616 34.8027 20.3585C34.5585 20.1174 34.5788 19.9922 34.8105 19.7683C35.5964 19.0095 36.3687 18.2372 37.1274 17.4513C37.3418 17.2305 37.4718 17.171 37.7222 17.4247C39.3242 19.0508 40.9376 20.6648 42.5626 22.2669C42.8115 22.5033 42.7864 22.6348 42.5563 22.8571V22.865ZM54.8622 18.8524C53.0724 20.6476 51.2805 22.4412 49.4865 24.2333C49.1327 24.5886 48.7523 24.8767 48.314 24.8595C48.0934 24.8641 47.8742 24.8224 47.6707 24.7372C47.4671 24.652 47.2836 24.5252 47.1321 24.3648C43.2978 20.5292 39.4651 16.6935 35.6339 12.8579C34.9592 12.1816 34.9514 11.3613 35.623 10.6802C37.514 8.76191 39.4155 6.85662 41.3274 4.96438C42.0397 4.26145 42.8459 4.29433 43.591 5.0317C44.9373 6.36243 46.2695 7.70568 47.6064 9.04266L54.8481 16.2834C55.7576 17.1898 55.7639 17.9413 54.8622 18.8446V18.8524ZM54.2141 12.6998C54.0043 12.9127 53.901 12.872 53.7147 12.6826C51.5972 10.5461 49.4729 8.41905 47.3418 6.30137C47.1368 6.09941 47.1039 5.98826 47.3293 5.76282C48.5128 4.60274 49.6775 3.42231 50.8547 2.25127C50.9984 2.09917 51.1716 1.97807 51.3638 1.89541C51.5561 1.81276 51.7632 1.7703 51.9724 1.77065C52.3581 1.78325 52.724 1.94486 52.9931 2.22153C54.5804 3.80744 56.1756 5.38709 57.7504 6.98552C58.4001 7.64619 58.4063 8.45401 57.7598 9.11937C56.592 10.3233 55.3882 11.4928 54.2141 12.692V12.6998Z" fill="white"/>
<path d="M0.00939253 52.1425C0.00939253 54.6317 0.0172198 57.1209 0 59.6117C0 59.9358 0.0641828 60.0016 0.388228 60C2.87883 59.9828 5.36788 59.9906 7.85692 59.9906C5.75767 59.7855 3.99812 58.8744 2.53444 57.3886C1.0958 55.9295 0.211334 54.198 0.00939253 52.1425Z" fill="#FEFEFE"/>
<path d="M7.5625 59.8638C3.962 59.1134 1.57002 56.9972 0.386548 53.5154C0.230004 53.0646 0.25192 52.5667 0.00927734 52.1425C0.211219 54.198 1.09569 55.9295 2.52806 57.3886C3.99801 58.8744 5.75756 59.7855 7.85054 59.9906C7.80358 59.8434 7.67052 59.8857 7.5625 59.8638Z" fill="#FEFEFE"/>
<path d="M9.11073 46.4971C8.23932 46.4955 7.38709 46.7529 6.66213 47.2364C5.93718 47.72 5.37217 48.408 5.03878 49.2132C4.70538 50.0184 4.61863 50.9044 4.78952 51.759C4.9604 52.6135 5.38123 53.3981 5.99862 54.0131C6.61601 54.6281 7.40214 55.0459 8.2573 55.2134C9.11246 55.381 9.9981 55.2907 10.8019 54.9542C11.6057 54.6176 12.2914 54.0498 12.7721 53.3229C13.2528 52.596 13.5067 51.7427 13.5018 50.8712C13.4964 49.7098 13.0315 48.5978 12.2087 47.7781C11.3859 46.9585 10.2721 46.4979 9.11073 46.4971ZM9.13265 53.5421C8.43334 53.5385 7.76324 53.2612 7.26584 52.7696C6.76843 52.278 6.48327 51.6112 6.47141 50.912C6.46891 50.212 6.74401 49.5396 7.23641 49.0422C7.72881 48.5448 8.39833 48.2629 9.09821 48.2583C9.44488 48.2523 9.78927 48.3155 10.1112 48.4443C10.4331 48.5731 10.7261 48.7649 10.9729 49.0084C11.2198 49.2519 11.4155 49.5422 11.5487 49.8624C11.6819 50.1825 11.7498 50.5261 11.7485 50.8728C11.7531 51.5724 11.4805 52.2453 10.9902 52.7443C10.5 53.2434 9.83213 53.528 9.13265 53.5358V53.5421Z" fill="white"/>
</g>
<defs>
<clipPath id="clip0_1_139">
<rect width="60" height="60" fill="white"/>
</clipPath>
</defs>
</svg>
