<svg width="42" height="54" viewBox="0 0 42 54" fill="none" xmlns="http://www.w3.org/2000/svg">
<g clip-path="url(#clip0_1_194)">
<path d="M5.90526 54C4.82548 53.5379 4.45034 52.6967 4.54591 51.585C4.57587 51.237 4.54591 50.8806 4.54591 50.5311C4.57444 49.318 5.29905 48.6192 6.53287 48.6079H7.25462V44.0992H6.68407C5.09792 44.0992 3.51178 44.0992 1.92564 44.0992C0.727471 44.0992 0.00429257 43.3778 -0.00854492 42.1915C-0.00854492 41.6124 -0.00854492 41.0319 -0.00854492 40.4528C-0.00854492 39.9075 0.262468 39.4961 0.646167 39.1185C0.841429 38.9336 0.974813 38.6942 1.02844 38.4324C1.41642 35.5792 1.77729 32.7218 2.14815 29.8658C2.6607 25.9123 3.1742 21.9592 3.68865 18.0066C4.17077 14.2968 4.67714 10.5912 5.1293 6.87576C5.3019 5.44989 5.37179 4.00992 5.45737 2.5756C5.49565 1.9114 5.77858 1.28397 6.25285 0.811608C6.72711 0.339245 7.35993 0.0545801 8.032 0.0112804C8.2103 0.00141766 8.3886 0.0112804 8.5669 0.0112804H33.3989C35.4286 0.0112804 36.42 1.07364 36.5369 3.05324C36.6667 5.29208 36.942 7.52388 37.2145 9.75287C37.6666 13.4472 38.1687 17.1373 38.648 20.8287C39.1643 24.7992 39.6793 28.7697 40.1928 32.7401C40.4267 34.5337 40.6678 36.3259 40.8917 38.121C40.9459 38.562 41.05 38.9156 41.4138 39.2566C41.7162 39.5384 41.8959 40.0329 41.9572 40.457C42.0471 41.077 41.9972 41.7251 41.9786 42.3521C41.9487 43.3637 41.1955 44.0908 40.1557 44.0992C38.5524 44.1133 36.9477 44.0992 35.3431 44.0992H34.6826V48.6149C35.0093 48.6149 35.3045 48.6079 35.5998 48.6149C36.5583 48.6403 37.2972 49.2405 37.3828 50.1648C37.4388 50.9152 37.4388 51.6687 37.3828 52.4191C37.3343 53.2335 36.7381 53.6548 36.0677 53.9916L5.90526 54ZM32.8369 44.1373H9.15885V48.5755H32.8369V44.1373ZM25.5067 38.6761C24.9276 27.565 24.3499 16.4811 23.7736 5.42452H21.9364V38.6761H25.5067ZM18.2079 5.42452C17.6287 16.529 17.0511 27.6129 16.4748 38.6761H20.0294V5.42452H18.2079ZM30.0469 38.693C29.1796 27.5749 28.3152 16.5103 27.4508 5.43157H25.6008C26.178 16.5389 26.7557 27.6261 27.3339 38.693H30.0469ZM14.5306 5.41325C13.6653 16.5037 12.8004 27.5913 11.936 38.6761H14.6462C15.2234 27.5772 15.8001 16.4896 16.3764 5.41325H14.5306ZM29.2809 5.42171C30.1472 16.53 31.0116 27.6138 31.8741 38.6733H34.5842C33.4307 27.5688 32.2773 16.4849 31.1238 5.42171H29.2809ZM32.9496 5.42171C34.1049 16.5507 35.2598 27.6303 36.4143 38.6606H39.1158C37.6714 27.5467 36.2307 16.4661 34.7939 5.41889L32.9496 5.42171ZM10.8548 5.42171C9.70135 16.5121 8.54883 27.596 7.39726 38.6733H10.1074C10.9727 27.5819 11.8371 16.4981 12.7006 5.42171H10.8548ZM7.18473 5.42171L2.8642 38.6733H5.56435C6.71687 27.5791 7.86797 16.5159 9.02049 5.42171H7.18473ZM1.87571 40.5176V42.2619H40.1029V40.5176H1.87571ZM35.5741 50.4452H6.4102V52.1754H35.5684L35.5741 50.4452ZM7.29599 3.55905H34.6826C34.6826 3.31812 34.6826 3.10959 34.6826 2.90248C34.6741 2.13318 34.3517 1.79785 33.5843 1.79644C25.1934 1.79644 16.801 1.79644 8.40714 1.79644C7.62976 1.79644 7.30597 2.12473 7.29599 2.88839C7.29599 3.09973 7.29599 3.30967 7.29599 3.55905Z" fill="white"/>
</g>
<defs>
<clipPath id="clip0_1_194">
<rect width="42" height="54" fill="white"/>
</clipPath>
</defs>
</svg>
