<svg width="66" height="50" viewBox="0 0 66 50" fill="none" xmlns="http://www.w3.org/2000/svg">
<g clip-path="url(#clip0_1_171)">
<path d="M0.000160902 6.24859C0.428911 5.21264 0.688917 4.05065 1.31741 3.14075C3.08751 0.580229 5.62213 -0.452264 8.67332 0.174484C11.7245 0.801232 13.5566 2.79543 14.2918 5.81522C14.3211 5.93608 14.3401 6.06212 14.3779 6.25895C15.4782 6.25895 16.5682 6.25895 17.6495 6.25895C17.8636 6.24465 18.0786 6.25566 18.2901 6.29175C18.7842 6.41434 19.0787 6.74584 19.0563 7.26727C19.0339 7.7887 18.7309 8.15991 18.2212 8.172C16.5888 8.20653 14.9496 8.22207 13.3241 8.172C12.6733 8.14955 12.5062 7.60395 12.477 7.00138C12.4235 5.88283 12.0175 4.81013 11.3175 3.93761C10.6174 3.06509 9.65938 2.43774 8.5812 2.14583C7.50302 1.85391 6.36028 1.91247 5.3174 2.31309C4.27452 2.7137 3.38526 3.43572 2.77757 4.37525C2.13667 5.35722 1.84512 6.52736 1.95012 7.69619C2.05512 8.86502 2.55053 9.96408 3.35612 10.8154C3.58264 11.0394 3.75894 11.3093 3.87325 11.607C3.98756 11.9047 4.03727 12.2235 4.01905 12.542C4.00298 20.9021 4.00298 29.2622 4.01905 37.6223C4.03111 37.8982 3.98436 38.1735 3.88193 38.4298C3.77949 38.6861 3.62372 38.9176 3.425 39.1088C2.62836 39.9224 2.1188 40.9748 1.97394 42.1056C1.82908 43.2365 2.05687 44.3839 2.6226 45.3729C3.18337 46.3646 4.04816 47.1485 5.08855 47.6082C6.12894 48.0679 7.28944 48.1789 8.39775 47.9248C9.50606 47.6706 10.5031 47.0648 11.2407 46.1973C11.9784 45.3298 12.4174 44.2469 12.4925 43.1093C12.5648 42.0268 12.7972 41.804 13.87 41.804C18.0369 41.804 22.2045 41.804 26.3726 41.804C27.4057 41.804 27.6589 42.0527 27.7209 43.08C27.8062 44.4257 28.3998 45.6883 29.3809 46.6106C30.362 47.5328 31.6568 48.0455 33.0016 48.0442C34.3464 48.0429 35.6401 47.5277 36.6194 46.6035C37.5987 45.6792 38.1899 44.4155 38.2726 43.0696C38.3329 42.0492 38.5929 41.8058 39.6294 41.804C41.0069 41.804 42.3845 41.804 43.7534 41.804C44.4766 41.804 44.8812 42.1493 44.8915 42.7467C44.9019 43.3441 44.4748 43.7326 43.7275 43.7378C42.5498 43.7464 41.372 43.7378 40.1632 43.7378C39.8033 45.8011 38.8443 47.4551 37.174 48.6516C35.9112 49.57 34.3784 50.0386 32.8194 49.9828C29.3274 49.8913 26.8065 47.6744 25.813 43.7775H14.3986C14.3349 44.0261 14.2677 44.2955 14.1989 44.5545C13.7901 46.1413 12.8563 47.5419 11.5502 48.5272C10.2442 49.5125 8.64326 50.024 7.00949 49.9781C5.37573 49.9321 3.8059 49.3315 2.55695 48.2744C1.308 47.2173 0.453906 45.7663 0.134468 44.1591C0.0971623 44.0175 0.0523289 43.878 0.000160902 43.7413V41.8023C0.0495669 41.6905 0.0904355 41.575 0.122415 41.457C0.334204 40.2407 0.869617 39.1043 1.67211 38.1679C1.81349 38.0112 1.92249 37.828 1.99283 37.6289C2.06318 37.4297 2.09346 37.2186 2.08192 37.0076C2.07159 29.1505 2.07159 21.2923 2.08192 13.4329C2.08192 12.7129 1.96656 12.131 1.46721 11.5665C0.623485 10.6151 0.303213 9.39442 -0.00500488 8.18754L0.000160902 6.24859Z" fill="white"/>
<path d="M25.7956 6.25885C26.9579 2.1306 29.4891 -0.0207166 33.0603 0.0120884C36.5884 0.0431668 39.1041 2.22384 40.1906 6.22777H51.605C51.6773 5.92908 51.7462 5.62002 51.8306 5.31441C52.5934 2.51563 55.1022 0.350498 57.8968 0.0587061C60.9463 -0.258984 63.7512 1.20688 65.1511 3.84855C65.8219 5.12322 66.1009 6.56862 65.9529 8.0022C65.8048 9.43578 65.2364 10.7932 64.3195 11.903C64.0882 12.194 63.956 12.5516 63.9424 12.9234C63.9217 20.9808 63.9217 29.0382 63.9424 37.0956C63.9421 37.4273 64.0477 37.7503 64.2437 38.0175C66.2221 40.3812 66.57 43.6376 65.0874 46.2827C64.3683 47.5832 63.2666 48.6297 61.9326 49.2793C60.5987 49.929 59.0973 50.1502 57.6333 49.9129C56.1693 49.6756 54.8139 48.9912 53.7521 47.9532C52.6902 46.9151 51.9735 45.5739 51.6997 44.1124C51.6791 44.0105 51.655 43.9086 51.6188 43.7394C50.6012 43.7394 49.5973 43.7498 48.5934 43.7394C47.9598 43.7308 47.5603 43.3941 47.5121 42.8571C47.4952 42.7282 47.5059 42.597 47.5435 42.4725C47.5811 42.348 47.6447 42.2329 47.73 42.1349C47.8153 42.0369 47.9205 41.9583 48.0385 41.9042C48.1565 41.8501 48.2846 41.8218 48.4144 41.8212C49.8102 41.7947 51.2061 41.7947 52.602 41.8212C53.1857 41.8333 53.4629 42.2321 53.5077 42.94C53.6455 45.0223 54.6149 46.5831 56.4831 47.5172C57.5916 48.0614 58.8556 48.1977 60.0542 47.902C61.2527 47.6064 62.3094 46.8978 63.0396 45.9C63.7698 44.9022 64.127 43.6788 64.0487 42.4437C63.9704 41.2085 63.4616 40.0403 62.6113 39.1433C62.4041 38.946 62.2411 38.7069 62.133 38.4416C62.025 38.1764 61.9744 37.8912 61.9846 37.6049C62.0018 29.2022 62.0018 20.7995 61.9846 12.3968C61.9712 12.1211 62.0166 11.8458 62.1179 11.5891C62.2191 11.3324 62.3739 11.1004 62.5717 10.9085C63.3694 10.0962 63.8806 9.04491 64.0276 7.91451C64.1746 6.7841 63.9494 5.63648 63.3862 4.64623C62.8242 3.64996 61.9557 2.86287 60.9105 2.40266C59.8653 1.94244 58.6997 1.83383 57.5878 2.09307C56.476 2.3523 55.4777 2.96545 54.7423 3.84083C54.0068 4.71621 53.5737 5.80679 53.5077 6.94948C53.4509 7.93881 53.1806 8.20471 52.2077 8.20643C47.9971 8.20643 43.7871 8.20643 39.5776 8.20643C38.6048 8.20643 38.3361 7.93881 38.2776 6.94776C38.2001 5.5942 37.6082 4.32191 36.6236 3.39271C35.639 2.4635 34.3367 1.94808 32.9846 1.9525C31.6325 1.95693 30.3335 2.48086 29.355 3.41649C28.3764 4.35212 27.7928 5.62826 27.7241 6.98229C27.6725 7.92155 27.3798 8.20298 26.4551 8.20643C25.2498 8.20643 24.0445 8.20643 22.8391 8.20643C22.0953 8.20643 21.6493 7.82659 21.6562 7.23264C21.6631 6.6387 22.1073 6.27612 22.8615 6.27094C23.8499 6.25367 24.8331 6.25885 25.7956 6.25885Z" fill="white"/>
<path d="M6.25394 24.9456C6.2632 22.4034 7.02467 19.9211 8.44188 17.813C9.8591 15.705 11.8683 14.0662 14.2151 13.104C16.5619 12.1418 19.1406 11.8996 21.6248 12.4081C24.1089 12.9165 26.3867 14.1527 28.1697 15.9602C29.9526 17.7676 31.1606 20.0649 31.6405 22.5613C32.1205 25.0576 31.8508 27.6405 30.8657 29.9831C29.8806 32.3256 28.2244 34.3223 26.1067 35.7203C23.9891 37.1183 21.5054 37.8547 18.9701 37.8363C11.9017 37.7707 6.19884 32.0004 6.25394 24.9456ZM8.18934 24.9767C8.18426 27.1319 8.81629 29.2403 10.0056 31.0355C11.1949 32.8308 12.8881 34.2323 14.8713 35.0631C16.8546 35.8939 19.0389 36.1168 21.1484 35.7034C23.2578 35.2901 25.1978 34.2592 26.7233 32.7409C28.2488 31.2226 29.2913 29.285 29.7191 27.1729C30.147 25.0609 29.941 22.869 29.1272 20.8742C28.3134 18.8795 26.9283 17.1713 25.1469 15.9654C23.3654 14.7596 21.2675 14.1102 19.1182 14.0993C17.6876 14.0915 16.2696 14.367 14.9455 14.9099C13.6213 15.4528 12.4171 16.2525 11.4018 17.263C10.3865 18.2736 9.58005 19.4751 9.02879 20.7988C8.47753 22.1225 8.19226 23.5423 8.18934 24.9767Z" fill="white"/>
<path d="M59.7495 24.9629C59.7702 31.574 54.5632 37.339 48.1612 37.7914C41.1514 38.2852 35.2729 33.6476 34.2604 26.8345C33.0999 19.0183 39.3124 11.9704 47.1866 12.1586C48.9514 12.1871 50.6909 12.5847 52.2938 13.3258C53.0342 13.6711 53.2873 14.1666 53.0204 14.7312C52.7535 15.2958 52.2352 15.4218 51.481 15.0765C45.0687 12.238 37.8781 15.8172 36.3284 22.6148C34.7701 29.4606 40.089 36.0614 47.0971 35.8835C51.5861 35.7713 54.9196 33.6131 56.793 29.5487C58.6665 25.4843 58.0707 21.622 55.3553 18.0808C55.3036 18.0117 55.2451 17.9478 55.1917 17.8805C54.6751 17.252 54.6648 16.6943 55.1486 16.3007C55.6325 15.907 56.1628 16.0279 56.6983 16.6598C58.6703 18.9741 59.7525 21.9189 59.7495 24.9629Z" fill="white"/>
<path d="M7.24394 10.2783C6.64172 10.2807 6.05235 10.1037 5.55055 9.76984C5.04875 9.43595 4.65712 8.96017 4.42532 8.40282C4.19352 7.84548 4.13198 7.23167 4.24851 6.63921C4.36503 6.04675 4.65438 5.50233 5.07986 5.07496C5.50533 4.6476 6.04778 4.35654 6.63843 4.23869C7.22908 4.12083 7.84133 4.18149 8.39756 4.41298C8.95378 4.64446 9.42893 5.03634 9.76277 5.53894C10.0966 6.04153 10.2741 6.63221 10.2727 7.23608C10.2673 8.04036 9.94667 8.81024 9.37997 9.37945C8.81327 9.94866 8.04603 10.2715 7.24394 10.2783ZM8.33218 7.21018C8.33081 6.91253 8.21157 6.62762 8.00071 6.41813C7.78984 6.20863 7.50462 6.09171 7.20778 6.09308C6.91095 6.09445 6.62681 6.21401 6.41788 6.42545C6.20895 6.63689 6.09235 6.92289 6.09372 7.22054C6.0944 7.36792 6.12402 7.51372 6.18089 7.64962C6.23777 7.78552 6.32078 7.90886 6.42519 8.01259C6.5296 8.11632 6.65336 8.19842 6.78941 8.25419C6.92546 8.30996 7.07114 8.33831 7.21811 8.33763C7.36509 8.33695 7.5105 8.30725 7.64603 8.25022C7.78156 8.19319 7.90457 8.10996 8.00802 8.00526C8.11147 7.90057 8.19334 7.77647 8.24896 7.64005C8.30458 7.50363 8.33285 7.35756 8.33218 7.21018Z" fill="white"/>
<path d="M33.0017 10.2783C32.3995 10.2755 31.8116 10.0935 31.3126 9.75522C30.8136 9.41696 30.4261 8.93775 30.1991 8.37835C29.9721 7.81895 29.9159 7.20455 30.0376 6.61308C30.1593 6.0216 30.4534 5.47968 30.8827 5.05605C31.3119 4.63241 31.857 4.34614 32.4487 4.23353C33.0405 4.12092 33.6522 4.18705 34.2064 4.42353C34.7606 4.66001 35.2323 5.05619 35.5616 5.56183C35.891 6.06747 36.0632 6.6598 36.0564 7.26369C36.0442 8.06777 35.7169 8.83474 35.1453 9.39884C34.5737 9.96293 33.8037 10.2788 33.0017 10.2783ZM34.1158 7.2447C34.1236 6.94843 34.0136 6.6612 33.8102 6.4462C33.6068 6.2312 33.3265 6.10604 33.031 6.09825C32.7355 6.09047 32.4491 6.2007 32.2347 6.40469C32.0203 6.60868 31.8954 6.88972 31.8877 7.186C31.8838 7.3327 31.9088 7.47872 31.9613 7.61573C32.0137 7.75273 32.0926 7.87804 32.1933 7.9845C32.294 8.09096 32.4147 8.17648 32.5484 8.23618C32.6821 8.29588 32.8262 8.32859 32.9725 8.33245C33.1188 8.3363 33.2644 8.31122 33.401 8.25864C33.5377 8.20607 33.6626 8.12702 33.7688 8.02601C33.875 7.925 33.9603 7.80402 34.0198 7.66996C34.0793 7.5359 34.112 7.3914 34.1158 7.2447Z" fill="white"/>
<path d="M58.7716 10.2783C58.1721 10.2725 57.5877 10.0892 57.0918 9.7513C56.5959 9.41344 56.2107 8.93615 55.9846 8.37941C55.7585 7.82266 55.7015 7.21132 55.8209 6.62221C55.9403 6.03311 56.2306 5.49252 56.6555 5.06841C57.0804 4.64429 57.6208 4.35557 58.2088 4.23853C58.7969 4.12149 59.4063 4.18135 59.9605 4.41059C60.5147 4.63984 60.989 5.02823 61.3237 5.52696C61.6584 6.02569 61.8386 6.6125 61.8417 7.21363C61.8426 7.61752 61.7637 8.01758 61.6096 8.39072C61.4554 8.76387 61.2291 9.10269 60.9437 9.38764C60.6582 9.67258 60.3193 9.898 59.9465 10.0509C59.5737 10.2037 59.1743 10.281 58.7716 10.2783ZM58.7716 8.33418C59.0623 8.33795 59.343 8.22722 59.5532 8.02577C59.7634 7.82433 59.8865 7.54823 59.8959 7.2568C59.8972 7.1101 59.8696 6.96459 59.8148 6.82858C59.7599 6.69257 59.6789 6.56872 59.5763 6.46411C59.4738 6.3595 59.3517 6.27617 59.217 6.21887C59.0823 6.16158 58.9377 6.13145 58.7914 6.13021C58.6451 6.12896 58.4999 6.15662 58.3643 6.21161C58.2287 6.26659 58.1051 6.34783 58.0008 6.45068C57.8965 6.55353 57.8134 6.67598 57.7562 6.81103C57.6991 6.94609 57.6691 7.09111 57.6678 7.23781C57.6719 7.52971 57.7903 7.80829 57.9974 8.01342C58.2046 8.21855 58.4839 8.33376 58.775 8.33418H58.7716Z" fill="white"/>
<path d="M7.18884 39.713C7.79121 39.7103 8.38082 39.887 8.88288 40.2208C9.38494 40.5545 9.77683 41.0303 10.0088 41.5877C10.2409 42.1451 10.3025 42.7591 10.1861 43.3517C10.0696 43.9443 9.78022 44.4889 9.35464 44.9164C8.92906 45.3438 8.38645 45.6349 7.79564 45.7527C7.20484 45.8705 6.59245 45.8097 6.03615 45.578C5.47985 45.3463 5.00472 44.9542 4.67101 44.4513C4.3373 43.9485 4.16006 43.3576 4.16176 42.7535C4.16582 41.9493 4.48588 41.1791 5.05254 40.6099C5.61921 40.0407 6.38679 39.7185 7.18884 39.713ZM7.21466 43.8689C7.50572 43.8664 7.78457 43.7514 7.99309 43.5478C8.20161 43.3441 8.3237 43.0677 8.33389 42.776C8.33389 42.4783 8.21597 42.1929 8.00608 41.9824C7.79618 41.772 7.5115 41.6537 7.21466 41.6537C6.91783 41.6537 6.63315 41.772 6.42325 41.9824C6.21335 42.1929 6.09544 42.4783 6.09544 42.776C6.10605 43.0675 6.22827 43.3438 6.4367 43.5473C6.64513 43.7508 6.92374 43.866 7.21466 43.8689Z" fill="white"/>
<path d="M33.0052 45.813C32.4032 45.811 31.8153 45.6298 31.3161 45.2924C30.8169 44.955 30.4288 44.4767 30.2009 43.9179C29.9731 43.3592 29.9158 42.7452 30.0362 42.1538C30.1567 41.5623 30.4495 41.0201 30.8776 40.5957C31.3057 40.1712 31.8498 39.8838 32.441 39.7697C33.0321 39.6557 33.6437 39.7201 34.1983 39.9549C34.7529 40.1897 35.2256 40.5843 35.5563 41.0886C35.8871 41.593 36.0611 42.1845 36.0563 42.7881C36.0429 43.5921 35.716 44.3589 35.1457 44.9242C34.5754 45.4896 33.8071 45.8086 33.0052 45.813ZM34.1175 42.7708C34.1209 42.5486 34.0583 42.3304 33.9375 42.1441C33.8168 41.9577 33.6434 41.8116 33.4396 41.7244C33.2357 41.6372 33.0106 41.6129 32.7929 41.6545C32.5752 41.6962 32.3748 41.8018 32.2172 41.9581C32.0596 42.1144 31.952 42.3142 31.9082 42.532C31.8643 42.7499 31.8861 42.9759 31.9708 43.1812C32.0555 43.3866 32.1993 43.562 32.3838 43.6851C32.5684 43.8082 32.7853 43.8734 33.0069 43.8724C33.2983 43.8671 33.5765 43.7493 33.7834 43.5434C33.9903 43.3376 34.11 43.0595 34.1175 42.7674V42.7708Z" fill="white"/>
<path d="M58.7681 39.713C59.3705 39.7123 59.9596 39.8911 60.4605 40.2267C60.9615 40.5622 61.3518 41.0394 61.5818 41.5977C61.8119 42.156 61.8714 42.7703 61.7528 43.3626C61.6341 43.9548 61.3427 44.4984 60.9155 44.9243C60.4883 45.3503 59.9446 45.6394 59.3533 45.755C58.7619 45.8705 58.1497 45.8074 57.5942 45.5735C57.0388 45.3397 56.5651 44.9456 56.2333 44.4414C55.9015 43.9372 55.7266 43.3455 55.7307 42.7414C55.7388 41.9378 56.062 41.1696 56.6303 40.6029C57.1987 40.0363 57.9666 39.7166 58.7681 39.713ZM58.8077 43.8689C59.0983 43.8596 59.3741 43.7383 59.5778 43.5302C59.7814 43.3221 59.8972 43.0433 59.9011 42.7518C59.901 42.53 59.8351 42.3132 59.7118 42.1291C59.5884 41.9449 59.4132 41.8018 59.2084 41.7179C59.0037 41.634 58.7786 41.6131 58.562 41.6579C58.3453 41.7027 58.1469 41.8112 57.9919 41.9695C57.837 42.1278 57.7325 42.3288 57.6919 42.5468C57.6513 42.7649 57.6763 42.9901 57.7638 43.1938C57.8513 43.3976 57.9973 43.5706 58.1832 43.6908C58.3691 43.811 58.5865 43.873 58.8077 43.8689Z" fill="white"/>
<path d="M34.0332 13.4794C34.0259 13.7542 33.91 14.0147 33.7111 14.2038C33.5122 14.3929 33.2465 14.4951 32.9725 14.4877C32.6985 14.4804 32.4386 14.3642 32.25 14.1648C32.0615 13.9653 31.9596 13.6989 31.9669 13.4242C31.9705 13.2881 32.0008 13.1541 32.0561 13.0298C32.1114 12.9055 32.1905 12.7934 32.289 12.6997C32.3875 12.6061 32.5034 12.5328 32.6301 12.4841C32.7569 12.4354 32.8919 12.4122 33.0276 12.4158C33.1633 12.4195 33.2969 12.4499 33.4209 12.5053C33.5448 12.5607 33.6567 12.64 33.7501 12.7388C33.8434 12.8376 33.9165 12.9538 33.9651 13.0809C34.0137 13.2079 34.0368 13.3434 34.0332 13.4794Z" fill="white"/>
<path d="M59.8167 13.5001C59.8105 13.6361 59.7776 13.7696 59.72 13.8929C59.6623 14.0162 59.581 14.1269 59.4807 14.2187C59.3803 14.3105 59.2629 14.3816 59.1352 14.4279C59.0075 14.4742 58.8719 14.4948 58.7363 14.4886C58.6006 14.4823 58.4675 14.4494 58.3445 14.3915C58.2215 14.3337 58.1111 14.2522 58.0196 14.1516C57.928 14.051 57.8572 13.9333 57.811 13.8052C57.7648 13.6771 57.7443 13.5412 57.7505 13.4051C57.763 13.1304 57.8839 12.8719 58.0866 12.6865C58.2892 12.5012 58.557 12.4041 58.831 12.4167C59.105 12.4293 59.3628 12.5505 59.5476 12.7537C59.7325 12.9569 59.8293 13.2254 59.8167 13.5001Z" fill="white"/>
<path d="M8.24961 36.5224C8.25372 36.7971 8.14881 37.0622 7.95797 37.2594C7.86347 37.3571 7.75072 37.4351 7.62616 37.489C7.50159 37.543 7.36765 37.5718 7.23197 37.5738C6.95797 37.578 6.69355 37.4728 6.4969 37.2814C6.30024 37.09 6.18745 36.8282 6.18334 36.5534C6.18131 36.4174 6.20602 36.2823 6.25606 36.1558C6.3061 36.0293 6.38049 35.914 6.47498 35.8164C6.66583 35.6192 6.92698 35.5061 7.20098 35.5019C7.47498 35.4978 7.7394 35.603 7.93605 35.7944C8.13271 35.9857 8.2455 36.2476 8.24961 36.5224Z" fill="white"/>
<path d="M34.0331 36.5103C34.0324 36.6463 34.005 36.7809 33.9525 36.9063C33.8999 37.0317 33.8232 37.1455 33.7268 37.2413C33.6304 37.337 33.5161 37.4127 33.3905 37.4642C33.2649 37.5156 33.1305 37.5417 32.9948 37.541C32.8591 37.5403 32.7249 37.5129 32.5998 37.4602C32.4747 37.4075 32.3612 37.3306 32.2658 37.2339C32.1703 37.1373 32.0948 37.0227 32.0435 36.8967C31.9922 36.7708 31.9661 36.6359 31.9668 36.4999C31.9682 36.2251 32.0783 35.9622 32.2731 35.7689C32.4678 35.5756 32.7311 35.4678 33.0051 35.4691C33.2791 35.4705 33.5414 35.581 33.7341 35.7762C33.9269 35.9715 34.0344 36.2355 34.0331 36.5103Z" fill="white"/>
<path d="M59.8167 36.5551C59.8102 36.6912 59.777 36.8246 59.719 36.9478C59.661 37.0709 59.5794 37.1814 59.4788 37.273C59.3783 37.3645 59.2607 37.4353 59.1328 37.4813C59.005 37.5273 58.8693 37.5476 58.7337 37.541C58.598 37.5344 58.4649 37.5011 58.3421 37.443C58.2193 37.3848 58.1091 37.303 58.0178 37.2022C57.9265 37.1013 57.8559 36.9834 57.81 36.8552C57.7641 36.727 57.7439 36.591 57.7505 36.455C57.7637 36.1802 57.8853 35.922 58.0884 35.7371C58.2915 35.5522 58.5595 35.4558 58.8335 35.4691C59.1075 35.4824 59.3651 35.6043 59.5495 35.8079C59.7338 36.0116 59.83 36.2804 59.8167 36.5551Z" fill="white"/>
<path d="M7.19579 12.4417C7.32998 12.4364 7.46389 12.4579 7.58974 12.5049C7.71559 12.5519 7.83088 12.6235 7.92891 12.7155C8.02694 12.8075 8.10577 12.9182 8.16082 13.041C8.21587 13.1639 8.24604 13.2964 8.24958 13.431C8.25506 13.7058 8.15147 13.9715 7.9616 14.1696C7.77172 14.3678 7.51112 14.4822 7.23711 14.4877C6.96311 14.4932 6.69815 14.3893 6.50053 14.1989C6.3029 14.0085 6.1888 13.7472 6.18332 13.4725C6.18056 13.3377 6.20474 13.2037 6.25445 13.0784C6.30416 12.9531 6.37839 12.839 6.47275 12.743C6.56711 12.6469 6.6797 12.5708 6.80388 12.519C6.92806 12.4673 7.06132 12.441 7.19579 12.4417Z" fill="white"/>
</g>
<defs>
<clipPath id="clip0_1_171">
<rect width="66" height="50" fill="white"/>
</clipPath>
</defs>
</svg>
