<svg width="75" height="42" viewBox="0 0 75 42" fill="none" xmlns="http://www.w3.org/2000/svg">
<g clip-path="url(#clip0_1_196)">
<path d="M34.8872 41.9921H16.1906C14.6897 41.9921 14.1391 41.7399 14.1881 40.9873C14.2312 40.2958 14.4154 39.9273 16.1475 39.9313C28.2468 39.9589 40.3481 39.9313 52.4474 39.953C55.5315 39.953 58.3373 39.2023 60.767 37.2302C62.6794 35.6777 63.998 33.7016 64.8915 31.4162C65.8281 29.0185 66.6922 26.5873 67.7209 24.2291C69.0552 21.1714 69.1101 18.023 68.538 14.8373C67.9227 11.3993 65.9907 8.90708 62.7519 7.5851C61.4042 7.00804 59.9873 6.61064 58.5372 6.403C56.4622 6.14293 54.3499 6.16067 52.2534 6.07792C51.9863 6.07932 51.7213 6.12594 51.4696 6.21583C38.5062 10.2376 25.5435 14.2613 12.5814 18.287C8.52738 19.5519 5.60984 22.1092 3.68962 25.9037C2.6531 27.9507 1.83799 30.0036 2.10447 32.3737C2.4552 35.4827 4.91033 39.7421 9.7285 39.9155H9.87545C10.7043 39.9884 11.104 40.349 11.0824 40.9971C11.0609 41.6453 10.6181 41.9822 9.79316 41.9645C7.46974 41.9411 5.23948 41.0427 3.54267 39.4466C1.90698 37.9436 0.767547 35.9735 0.277226 33.8007C-0.213096 31.628 -0.0308525 29.3564 0.799506 27.2907C2.29845 23.5612 4.4342 20.2986 7.96112 18.1314C9.9891 16.8803 12.2424 16.244 14.48 15.5505C30.5471 10.5594 46.6103 5.5683 62.6696 0.577214C66.3219 -0.563512 69.5471 -0.106434 72.2197 2.72666C74.9628 5.62675 75.7211 9.09621 74.326 12.8238C71.8043 19.5519 69.1258 26.2209 66.4884 32.9037C65.8087 34.5954 64.8108 36.1393 63.5493 37.4508C60.571 40.5913 56.9128 42.0197 52.6355 42C46.7181 41.9704 40.8026 41.9921 34.8872 41.9921ZM58.1433 4.2299C65.1698 5.23666 69.9409 8.51108 70.8305 16.2026C71.2008 15.2766 71.5182 14.6127 71.7318 13.9172C72.1452 12.5657 72.7115 11.2141 72.8369 9.82911C73.2425 5.37851 69.0043 0.596915 63.6081 2.43902C61.9701 3.00249 60.3046 3.47927 58.6508 3.99742C58.5333 4.03683 58.4177 4.10578 58.1433 4.2299Z" fill="white"/>
<path d="M40.4695 39.0743C37.7889 39.0723 35.1691 38.2709 32.9416 36.7714C30.714 35.272 28.9789 33.1418 27.9558 30.6505C26.9327 28.1592 26.6675 25.4187 27.1938 22.7758C27.7201 20.1329 29.0142 17.7064 30.9124 15.8033C32.8106 13.9001 35.2277 12.6059 37.8576 12.0844C40.4876 11.5628 43.2123 11.8374 45.687 12.8734C48.1617 13.9094 50.2752 15.6602 51.7601 17.9042C53.2449 20.1483 54.0344 22.7848 54.0285 25.4802C54.0084 29.0861 52.5722 32.538 50.0326 35.0842C47.493 37.6303 44.0558 39.0645 40.4695 39.0743ZM40.5048 13.8897C38.9943 13.886 37.498 14.1816 36.1012 14.7594C34.7043 15.3373 33.4344 16.1861 32.3638 17.2574C30.2017 19.4211 28.9829 22.3598 28.9756 25.427C28.9684 28.4942 30.1732 31.4386 32.325 33.6126C34.4769 35.7866 37.3995 37.0121 40.4499 37.0194C46.7729 37.0391 51.9829 31.8064 51.981 25.4368C51.9707 22.3789 50.7585 19.449 48.6087 17.286C46.459 15.123 43.546 13.9021 40.5048 13.8897Z" fill="white"/>
<path d="M16.1553 20.1962C17.9887 20.188 19.7833 20.7267 21.3122 21.7441C22.8412 22.7615 24.0357 24.2119 24.7448 25.9119C25.4539 27.6119 25.6458 29.4852 25.2961 31.2948C24.9464 33.1044 24.0709 34.7692 22.7802 36.0785C21.4896 37.3878 19.8418 38.2829 18.0452 38.6506C16.2486 39.0182 14.3839 38.842 12.687 38.1441C10.99 37.4462 9.53701 36.258 8.51166 34.7298C7.4863 33.2015 6.93467 31.4019 6.92651 29.5584C6.92032 28.3342 7.15421 27.1207 7.61479 25.9874C8.07538 24.8541 8.75363 23.8232 9.61076 22.9537C10.4679 22.0842 11.4871 21.3931 12.61 20.9199C13.733 20.4468 14.9377 20.2008 16.1553 20.1962ZM8.97409 29.5328C8.97835 30.9675 9.40565 32.3688 10.2019 33.5593C10.9982 34.7499 12.1277 35.6763 13.4476 36.2213C14.7675 36.7664 16.2186 36.9057 17.6172 36.6216C19.0158 36.3375 20.2993 35.6428 21.3052 34.6252C22.3112 33.6077 22.9944 32.3131 23.2686 30.9051C23.5428 29.4971 23.3956 28.0389 22.8456 26.7151C22.2957 25.3912 21.3676 24.261 20.1788 23.4675C18.99 22.674 17.5939 22.2527 16.167 22.257C15.219 22.2575 14.2803 22.4464 13.405 22.8127C12.5298 23.1791 11.7351 23.7157 11.0667 24.3918C10.3983 25.0679 9.86937 25.8701 9.51025 26.7524C9.15114 27.6346 8.96892 28.5795 8.97409 29.5328Z" fill="white"/>
<path d="M65.6224 15.2806C65.6302 16.0584 65.4839 16.83 65.192 17.5503C64.9002 18.2707 64.4686 18.9254 63.9225 19.4763C63.3764 20.0272 62.7266 20.4632 62.0111 20.759C61.2957 21.0547 60.5288 21.2043 59.7552 21.1989C58.9817 21.1936 58.2169 21.0334 57.5056 20.7277C56.7942 20.4221 56.1505 19.9771 55.612 19.4187C55.0735 18.8603 54.6509 18.1996 54.369 17.4753C54.087 16.751 53.9513 15.9774 53.9698 15.1998C54.0031 11.9688 56.6561 9.33466 59.8343 9.37603C61.378 9.39523 62.8519 10.0262 63.9357 11.1317C65.0195 12.2373 65.6256 13.7283 65.6224 15.2806ZM63.5728 15.2432C63.5728 14.4912 63.3511 13.7561 62.9356 13.1309C62.5202 12.5056 61.9297 12.0183 61.2388 11.7304C60.5479 11.4425 59.7877 11.3671 59.0541 11.5137C58.3206 11.6602 57.6468 12.0222 57.1178 12.5538C56.5889 13.0854 56.2286 13.7627 56.0824 14.5002C55.9363 15.2376 56.0109 16.0021 56.2968 16.6969C56.5828 17.3918 57.0672 17.9858 57.6888 18.4038C58.3104 18.8219 59.0414 19.0452 59.7892 19.0456C60.7906 19.0399 61.7494 18.6376 62.4577 17.9257C63.166 17.2139 63.5667 16.2501 63.5728 15.2432Z" fill="white"/>
<path d="M32.4281 25.4309C32.4399 20.9527 36.0922 17.2921 40.5106 17.3296C42.1047 17.3335 43.6619 17.8124 44.9854 18.7059C46.3089 19.5993 47.3393 20.8672 47.9464 22.3493C48.5535 23.8314 48.71 25.4612 48.3962 27.0327C48.0824 28.6042 47.3124 30.0469 46.1834 31.1785C45.0544 32.3101 43.6171 33.0798 42.0532 33.3904C40.4893 33.7009 38.869 33.5384 37.3969 32.9233C35.9248 32.3082 34.6671 31.2682 33.7827 29.9346C32.8983 28.601 32.4269 27.0338 32.4281 25.4309ZM40.4754 31.4832C41.6662 31.4852 42.8309 31.1318 43.8219 30.4678C44.8129 29.8038 45.5857 28.8591 46.0424 27.7533C46.4991 26.6474 46.6192 25.4302 46.3875 24.2556C46.1558 23.0811 45.5827 22.0021 44.7407 21.1553C43.8988 20.3085 42.8259 19.7319 41.6579 19.4985C40.4899 19.2651 39.2792 19.3855 38.1793 19.8444C37.0793 20.3032 36.1395 21.0799 35.4788 22.0762C34.8181 23.0724 34.4663 24.2433 34.4678 25.4407C34.4673 26.2342 34.6223 27.02 34.924 27.7533C35.2257 28.4865 35.6682 29.1527 36.2261 29.7139C36.7841 30.2751 37.4465 30.7202 38.1756 31.0238C38.9047 31.3274 39.6862 31.4835 40.4754 31.4832Z" fill="white"/>
<path d="M10.6337 29.5407C10.6287 28.4355 10.9497 27.3537 11.5562 26.432C12.1627 25.5104 13.0274 24.7902 14.041 24.3627C15.0545 23.9352 16.1714 23.8195 17.2504 24.0303C18.3293 24.2411 19.3218 24.7689 20.1025 25.5469C20.8831 26.3249 21.4167 27.3182 21.6358 28.4012C21.855 29.4841 21.7498 30.6081 21.3335 31.631C20.9173 32.6538 20.2088 33.5296 19.2975 34.1475C18.3863 34.7655 17.3132 35.0978 16.2141 35.1025C14.7421 35.1041 13.3292 34.5202 12.2837 33.4782C11.2382 32.4362 10.6451 31.0208 10.6337 29.5407ZM12.6833 29.4895C12.677 30.1887 12.8776 30.8741 13.2595 31.4586C13.6414 32.043 14.1874 32.5002 14.8282 32.772C15.469 33.0439 16.1756 33.1181 16.8585 32.9854C17.5413 32.8527 18.1695 32.5189 18.6634 32.0265C19.1572 31.5341 19.4944 30.9053 19.6322 30.2198C19.7699 29.5344 19.702 28.8232 19.437 28.1767C19.1721 27.5301 18.722 26.9773 18.144 26.5884C17.566 26.1995 16.8861 25.9921 16.1906 25.9924C15.267 25.9975 14.3823 26.3666 13.7264 27.0205C13.0706 27.6744 12.6961 28.5609 12.6833 29.4895Z" fill="white"/>
</g>
<defs>
<clipPath id="clip0_1_196">
<rect width="75" height="42" fill="white"/>
</clipPath>
</defs>
</svg>
