<svg width="52" height="58" viewBox="0 0 52 58" fill="none" xmlns="http://www.w3.org/2000/svg">
<g clip-path="url(#clip0_1_190)">
<path d="M2.89549 6.21988C2.20575 6.21988 1.59187 6.2302 0.972823 6.21988C0.298596 6.20268 0.017524 5.94638 0.017524 5.28586C0.000280329 3.8255 0.00890216 2.3617 0.017524 0.908212C0.017524 0.307898 0.333083 0 0.941785 0C6.10684 0 11.2713 0 16.4352 0C17.0646 0 17.3526 0.285536 17.3578 0.903052C17.3738 2.36284 17.3738 3.82206 17.3578 5.2807C17.3578 5.9567 16.968 6.27836 16.1507 6.31276C15.6179 6.33684 15.0833 6.31276 14.5074 6.31276V8.93419C15.542 8.47149 16.5163 7.9847 17.5285 7.58735C31.1717 2.21377 46.2599 10.6577 48.7395 25.0704C48.9751 26.4872 49.0939 27.9208 49.0947 29.3569C49.1309 36.5452 49.112 43.7352 49.112 50.9252V51.7853C49.7724 51.7853 50.388 51.7767 51.0088 51.7853C51.7244 51.7973 51.9951 52.0467 52.002 52.752C52.0181 54.19 52.0181 55.628 52.002 57.066C51.9934 57.7317 51.7175 57.9983 51.0433 57.9983C45.9012 58.0052 40.7586 58.0052 35.6153 57.9983C34.948 57.9983 34.6687 57.7162 34.6618 57.0574C34.6491 55.6194 34.6491 54.1814 34.6618 52.7434C34.6618 52.0553 34.9515 51.7973 35.6654 51.7853C36.2637 51.7732 36.8621 51.7853 37.507 51.7853V49.0159C37.2673 49.1363 37.0655 49.2309 36.8707 49.3324C25.2381 55.4009 11.2242 50.9218 5.31478 39.2372C3.64904 35.9397 2.90066 32.4239 2.90066 28.7446V6.21988H2.89549ZM4.70608 6.24052C4.69401 6.48821 4.67676 6.67742 4.67676 6.86663C4.67676 14.2287 4.64572 21.5907 4.69918 28.951C4.6914 30.5592 4.87138 32.1628 5.23546 33.7294C7.17192 41.5249 11.9829 46.8692 19.6494 49.2619C27.3711 51.67 34.479 50.0532 40.4556 44.5867C50.0552 35.8039 49.5465 20.8579 39.5141 12.5498C32.7408 6.9406 22.8723 6.14935 15.2868 10.582C14.7109 10.9175 14.5039 11.2821 14.5125 11.9461C14.547 15.3158 14.5281 18.6854 14.5281 22.0551V22.578C14.9493 22.7574 15.3593 22.9619 15.7558 23.1904C16.38 23.6084 16.9629 24.0779 17.5785 24.52C18.3544 25.0842 19.1959 25.024 19.6977 24.3772C20.1995 23.7305 20.0167 22.8859 19.2563 22.3131C18.4958 21.7403 17.763 21.2226 17.0336 20.6567C16.5404 20.2748 16.4852 19.7364 16.9249 19.3339C19.9667 16.5525 23.55 15.3605 27.6557 15.7939C28.4834 15.8799 28.73 16.3461 28.4816 17.17C28.2333 17.994 27.973 18.7628 27.7419 19.5661C27.6473 19.8485 27.6069 20.1461 27.6229 20.4434C27.6665 20.7439 27.8116 21.0206 28.0342 21.2276C28.2568 21.4347 28.5436 21.5597 28.8472 21.5821C29.1723 21.6135 29.4982 21.5312 29.7691 21.3491C30.04 21.1671 30.239 20.8968 30.3319 20.5844C30.6319 19.7123 30.8785 18.823 31.1699 17.9492C31.3975 17.2612 31.8821 17.0135 32.4598 17.3352C36.0809 19.3459 38.395 22.3458 39.1848 26.4414C39.3245 27.1707 38.9296 27.5766 38.1709 27.5869C37.3087 27.5973 36.4465 27.5869 35.5843 27.5869C34.6307 27.6007 34.0048 28.1804 34.0169 29.0146C34.0289 29.8489 34.6376 30.3907 35.5567 30.4045C36.3741 30.4182 37.1914 30.4045 38.0088 30.4045C39.0141 30.4045 39.3745 30.8517 39.1331 31.8407C38.2019 35.637 36.0585 38.5491 32.6805 40.5358C31.9218 40.9831 31.42 40.7973 31.1458 39.9665C30.8716 39.1357 30.6285 38.3307 30.3698 37.5153C30.075 36.5985 29.3869 36.2081 28.5454 36.4695C27.7936 36.7017 27.4453 37.4723 27.7109 38.3616C27.9436 39.1408 28.2023 39.9097 28.4437 40.6924C28.7627 41.7244 28.4885 42.1441 27.4091 42.2405C23.4724 42.5724 20.0202 41.4372 17.0732 38.8003C16.4645 38.2567 16.4801 37.7682 17.1319 37.2522C17.8354 36.6897 18.5648 36.1565 19.2752 35.5992C20.0133 35.0195 20.1236 34.2781 19.5925 33.5815C19.0994 32.9313 18.3527 32.8487 17.5974 33.3854C16.9077 33.8705 16.2524 34.3865 15.573 34.8767C14.8143 35.422 14.2677 35.2809 13.8832 34.4278C13.0818 32.643 12.6749 30.707 12.6899 28.7514C12.6968 21.4984 12.6968 14.2441 12.6899 6.98876V6.23708L4.70608 6.24052ZM18.858 19.9411C19.3753 20.3126 19.8408 20.6291 20.2926 20.9542C21.8256 22.0534 22.1498 23.8423 21.0876 25.3508C20.0529 26.8181 18.1837 27.1311 16.6473 26.0905C16.1714 25.7671 15.7006 25.4317 15.1609 25.0584C14.2194 27.7194 14.2418 30.2961 15.1609 32.9502C15.6903 32.6217 16.1472 32.3447 16.599 32.0575C18.1682 31.0615 20.0012 31.3952 21.0341 32.8711C22.0291 34.2919 21.6687 36.1393 20.1719 37.2401C19.7305 37.567 19.2787 37.8817 18.7752 38.2412C21.0272 39.9613 23.4913 40.7388 26.3279 40.6958C26.1434 40.0491 25.983 39.4917 25.8261 38.9465C25.3174 37.1266 26.2055 35.3927 27.9057 34.8853C29.6835 34.3538 31.3544 35.2655 31.9528 37.0956C32.1097 37.5721 32.2718 38.0469 32.4356 38.5388C34.6238 37.2384 36.7465 34.2936 37.0173 32.1744C36.5396 32.1744 36.0671 32.2071 35.6016 32.1658C35.0722 32.1177 34.5152 32.0867 34.0255 31.9027C32.7288 31.4193 31.9252 30.0106 32.089 28.6586C32.2615 27.193 33.3478 26.0475 34.7997 25.8909C35.5343 25.8135 36.2827 25.8772 37.1121 25.8772C36.2965 23.07 34.7652 21.0076 32.4373 19.4165C32.2546 20.0047 32.1097 20.4743 31.9631 20.9439C31.3786 22.8068 29.7215 23.7374 27.9609 23.199C26.2469 22.6829 25.4054 20.98 25.9417 19.1309C26.0934 18.6149 26.2417 18.0851 26.409 17.4968C23.6814 17.395 21.0059 18.261 18.858 19.9411ZM47.2893 38.1449C47.2255 38.1827 47.1772 38.1948 47.1652 38.2223C45.5098 41.9934 42.8941 45.2667 39.5779 47.7173C39.4438 47.8136 39.3533 47.9589 39.3262 48.1215C39.3055 49.3169 39.3141 50.5124 39.3141 51.7337H47.2962L47.2893 38.1449ZM15.5541 1.78202H1.79362V4.42065H15.5541V1.78202ZM36.4017 53.5656C36.4017 54.264 36.4344 54.9262 36.3913 55.5833C36.3568 56.1165 36.5327 56.2713 37.0724 56.2713C41.2437 56.2489 45.4149 56.2593 49.5844 56.2575C49.7914 56.2575 50 56.2335 50.2121 56.2197V53.5656H36.4017Z" fill="white"/>
<path d="M29.7729 28.9785C29.7743 29.7069 29.5592 30.4194 29.1547 31.0259C28.7503 31.6324 28.1747 32.1057 27.5008 32.386C26.8268 32.6663 26.0846 32.7411 25.368 32.6008C24.6515 32.4605 23.9927 32.1115 23.4749 31.5979C22.9571 31.0843 22.6036 30.4291 22.4589 29.7151C22.3143 29.0011 22.3851 28.2604 22.6623 27.5865C22.9395 26.9126 23.4108 26.3358 24.0165 25.929C24.6223 25.5222 25.3353 25.3036 26.0655 25.3009C27.0445 25.3031 27.9831 25.6907 28.6773 26.3793C29.3715 27.0679 29.7652 28.0019 29.7729 28.9785ZM24.1636 29.0834C24.1675 29.5925 24.3701 30.0801 24.7284 30.4426C25.0867 30.8052 25.5725 31.0142 26.0828 31.0254C26.5927 31.0104 27.0779 30.8025 27.4398 30.4437C27.8017 30.085 28.0131 29.6023 28.0313 29.0937C28.0241 28.584 27.8174 28.0973 27.4552 27.7376C27.093 27.3779 26.6042 27.1738 26.0931 27.1689C25.8398 27.1671 25.5887 27.2153 25.3542 27.3107C25.1196 27.406 24.9063 27.5467 24.7265 27.7247C24.5467 27.9026 24.4039 28.1143 24.3064 28.3474C24.2089 28.5806 24.1586 28.8307 24.1584 29.0834H24.1636Z" fill="white"/>
</g>
<defs>
<clipPath id="clip0_1_190">
<rect width="52" height="58" fill="white"/>
</clipPath>
</defs>
</svg>
