<svg width="59" height="56" viewBox="0 0 59 56" fill="none" xmlns="http://www.w3.org/2000/svg">
<g clip-path="url(#clip0_1_167)">
<path d="M0 49.2698C0.320159 47.8308 1.20829 46.76 2.27036 45.793C2.43861 45.6216 2.54659 45.4009 2.5782 45.1636C2.6736 44.4616 3.01077 43.8139 3.53252 43.3305C4.95014 41.9358 6.35546 40.5289 7.77308 39.1327C7.96737 38.972 8.17314 38.8255 8.38877 38.6943C7.65302 37.9885 7.04503 37.3882 6.41549 36.8108C5.49195 35.966 4.95168 34.9502 5.49195 33.7556C6.05223 32.5014 6.9773 31.5513 8.47497 31.3496C8.76528 31.3127 9.03743 31.1891 9.25535 30.9952C11.9983 28.3005 14.7309 25.5957 17.4533 22.8807C19.3142 21.0353 21.1997 20.8948 23.3316 22.4835C23.4732 22.3506 23.6255 22.2146 23.7702 22.0726C27.3679 18.5021 30.9656 14.9316 34.5633 11.3611C35.8885 10.0458 37.0414 9.74489 38.7992 10.223C39.2995 9.696 39.6981 9.03761 40.2846 8.71682C41.1188 8.25854 41.7345 7.73916 42.1316 6.86538C42.3225 6.44682 42.7904 6.12755 43.1814 5.82661C43.8309 5.32709 44.4251 5.29959 45.7519 5.59748C47.4681 3.47107 48.6349 3.19305 50.425 4.54649C51.0853 3.88352 51.7533 3.21138 52.426 2.54229C53.0417 1.93125 53.6389 1.32022 54.2623 0.725984C55.2505 -0.215013 56.625 -0.228761 57.6378 0.678629C57.8379 0.857357 58.0241 1.04983 58.2104 1.24078C59.2478 2.3101 59.2678 3.69715 58.2288 4.75424C57.1314 5.8755 56.0077 6.97078 54.8903 8.07065C54.738 8.20452 54.5776 8.329 54.41 8.44338C56.0632 10.6156 54.9734 11.94 53.3618 13.1361C53.4542 13.4568 53.5236 13.7835 53.5696 14.1138C53.6666 15.3618 52.5368 16.8237 51.2084 17.227C51.0468 17.2759 50.8067 17.3798 50.779 17.4959C50.4989 18.6508 49.6292 19.2984 48.7134 19.9492C48.8074 20.3462 48.8758 20.7488 48.9181 21.1545C48.9529 21.6699 48.8755 22.1868 48.6911 22.6699C48.5068 23.1531 48.2199 23.5912 47.8499 23.9545C46.6092 25.2011 45.3609 26.441 44.1049 27.6742C43.6586 28.1142 43.1475 28.1524 42.7827 27.8041C42.3902 27.4313 42.4241 26.9272 42.8966 26.4552C44.0588 25.2912 45.2301 24.1363 46.3968 22.9769C47.4743 21.8984 47.4743 20.7848 46.383 19.6956C43.9684 17.2963 41.5519 14.898 39.1332 12.5007C38.0558 11.4313 36.9352 11.4313 35.8639 12.5007C32.2119 16.116 28.5603 19.7364 24.9093 23.3618C24.8015 23.4688 24.6984 23.5818 24.5537 23.7346L27.9754 27.1228C28.1293 27.2755 28.2832 27.4115 28.4187 27.5719C28.7512 27.9675 28.7419 28.4228 28.4095 28.7573C28.077 29.0918 27.6152 29.1056 27.2166 28.7817C27.098 28.6855 26.9949 28.5709 26.8856 28.464C25.3803 26.967 23.8734 25.4699 22.3649 23.9729C21.1674 22.7875 19.976 22.7982 18.7678 23.9943C17.8334 24.9215 16.8976 25.8472 15.9972 26.7439L32.0159 42.6553C33.0533 41.6364 34.1708 40.6099 35.1959 39.51C35.9978 38.6515 35.8824 37.4142 34.9973 36.5251C33.4581 34.9792 31.9035 33.4501 30.3566 31.9148C29.7409 31.2962 29.6301 30.8073 30.0303 30.3979C30.4305 29.9885 30.9538 30.0848 31.5603 30.6866L35.1159 34.2077L39.5088 29.8083C39.6539 29.6547 39.8081 29.5098 39.9706 29.3744C40.3708 29.0689 40.8464 29.0873 41.1558 29.4462C41.4652 29.8052 41.4867 30.2299 41.1558 30.5828C40.5539 31.2228 39.9244 31.8339 39.2949 32.4541C38.3205 33.4241 37.3431 34.3911 36.4165 35.3107C36.7243 35.9217 37.0999 36.4472 37.2769 37.0338C37.7279 38.5308 37.3323 39.8553 36.2226 40.9582C33.4386 43.7252 30.6511 46.487 27.86 49.2438C27.5776 49.4922 27.406 49.8416 27.3828 50.2154C27.2443 52.0684 25.0109 53.6922 23.35 53.1499C22.9039 52.9829 22.4969 52.7271 22.1541 52.3983C21.4491 51.7567 20.7995 51.0571 19.9545 50.2077C19.819 50.443 19.7452 50.666 19.6005 50.8066C18.1844 52.2323 16.7606 53.6484 15.3291 55.0548C14.0377 56.3288 12.4569 56.3258 11.164 55.0548C10.6345 54.5339 10.1112 54.0053 9.59398 53.4905C7.66534 54.6072 6.75258 54.4621 5.18411 52.8184C4.14667 51.7308 4.1205 50.5774 5.09021 49.114C4.47452 48.5152 3.85883 47.9179 3.24314 47.3099C2.16569 48.1944 1.4207 49.2958 1.85784 50.7974C2.03501 51.3163 2.31676 51.7939 2.68595 52.2013C3.21852 52.8245 3.84498 53.3668 4.42219 53.9534C4.86241 54.401 4.89627 54.9005 4.52994 55.2656C4.1636 55.6307 3.66489 55.6078 3.21082 55.1663C2.57974 54.5553 1.96559 53.9229 1.33759 53.3072C0.615689 52.5923 0.281678 51.6895 0 50.7562V49.2698ZM10.633 32.1608L26.5824 47.9775C27.9184 46.6515 29.2976 45.2828 30.609 43.9782L14.675 28.1585L10.633 32.1608ZM9.43852 39.9225C7.84235 41.5051 6.20615 43.109 4.59304 44.739C4.13128 45.2079 4.21901 45.7334 4.77621 46.2879C7.29951 48.7963 9.82384 51.302 12.3492 53.8052C12.9926 54.4438 13.4913 54.4499 14.1239 53.8251C15.6077 52.3606 17.0869 50.8921 18.5615 49.4195C18.6336 49.3429 18.6999 49.2612 18.7601 49.1751L9.43852 39.9225ZM25.682 49.8518C25.5226 49.5956 25.3407 49.3538 25.1386 49.1293C19.936 43.9528 14.7278 38.7803 9.51394 33.612C9.40924 33.5009 9.29823 33.3958 9.18147 33.2973C9.02375 33.1531 8.81716 33.0731 8.60272 33.0731C8.38829 33.0731 8.1817 33.1531 8.02397 33.2973C7.84943 33.4463 7.68393 33.6055 7.52835 33.7739C6.87571 34.4277 6.86802 34.8157 7.51757 35.4543C12.7674 40.6664 18.0171 45.8786 23.2669 51.0907C23.5948 51.4145 23.9272 51.6849 24.4275 51.5001C24.8908 51.3305 25.6758 50.4002 25.682 49.8442V49.8518ZM40.3508 11.0647C40.5226 11.3374 40.7129 11.5982 40.9203 11.8453C42.9644 13.8821 45.0131 15.9189 47.0664 17.9557C47.6528 18.5377 47.916 18.5255 48.544 17.9038C49.2275 17.2301 49.2475 16.9872 48.6472 16.3976C46.6 14.3608 44.5508 12.324 42.4995 10.2872C42.2209 10.0107 41.9038 9.67615 41.5113 9.95264C41.0973 10.2352 40.7633 10.6523 40.3508 11.0571V11.0647ZM52.015 14.3888C51.8413 14.1152 51.6495 13.8534 51.4409 13.6051C49.3988 11.5683 47.3506 9.53408 45.2963 7.50238C44.7037 6.91426 44.4589 6.92801 43.8186 7.56043C43.1368 8.2341 43.1183 8.46935 43.7217 9.06816C45.7688 11.105 47.8165 13.1417 49.8647 15.1785C50.1525 15.4657 50.4804 15.7621 50.8606 15.51C51.2808 15.2137 51.6056 14.7875 52.015 14.3811V14.3888ZM48.4856 5.33626C48.1362 5.64178 47.8021 5.90147 47.4989 6.19476C47.148 6.53236 47.1557 6.90968 47.4989 7.25033C48.8914 8.64146 50.289 10.028 51.6918 11.41C52.0335 11.7476 52.4029 11.7521 52.76 11.4222C52.9139 11.2786 53.0678 11.1319 53.2094 10.9792C53.6127 10.5515 53.625 10.2062 53.2094 9.79224C51.8601 8.4388 50.503 7.09248 49.1382 5.75329C48.9338 5.59503 48.7153 5.45545 48.4856 5.33626ZM53.1786 7.30685C54.4747 6.02978 55.7676 4.76494 57.0498 3.48787C57.3576 3.18235 57.3315 2.83864 57.0498 2.51785C56.9113 2.36509 56.7604 2.21233 56.608 2.07027C56.117 1.60435 55.82 1.59977 55.3382 2.07027C54.6024 2.78976 53.8775 3.52148 53.1417 4.24403C52.6322 4.74355 52.112 5.23391 51.621 5.70593L53.1786 7.30685ZM6.35392 50.3712C5.93833 51.0479 6.04607 51.3229 6.99116 52.1722C7.44215 52.5755 7.76077 52.5877 8.21176 52.2425L6.35392 50.3712Z" fill="white"/>
</g>
<defs>
<clipPath id="clip0_1_167">
<rect width="59" height="56" fill="white"/>
</clipPath>
</defs>
</svg>
