<svg width="102" height="30" viewBox="0 0 102 30" fill="none" xmlns="http://www.w3.org/2000/svg">
<g clip-path="url(#clip0_1_312)">
<path d="M21.3992 29.869C22.9845 28.0614 24.3109 26.5426 25.7505 24.8988C23.0142 24.3627 20.3672 24.0411 17.8421 23.3056C13.7258 22.1144 9.63925 20.7445 5.64788 19.199C4.13104 18.6034 2.75696 17.4628 1.55241 16.3252C-0.529524 14.3538 -0.470041 11.9566 1.51375 9.90473C3.8247 7.52236 6.80781 6.2746 9.84149 5.20253C17.738 2.41813 25.9557 1.22695 34.2448 0.43779C35.5534 0.312715 36.865 0.211464 38.5544 0.0685221C36.9899 1.8553 35.7021 3.4098 34.328 4.87495C34.0306 5.17275 33.4536 5.2472 32.9867 5.32165C27.7134 6.18824 22.4194 6.8821 17.1818 7.95119C14.7744 8.49509 12.4569 9.38055 10.2995 10.5807C7.51567 12.0697 7.593 14.0828 10.2995 15.7177C13.8686 17.8887 17.9343 18.6451 21.9554 19.4342C24.0373 19.8452 26.1668 20.0298 28.2607 20.4169C29.266 20.5956 29.8846 20.2502 30.533 19.5057C35.8359 13.4068 41.1895 7.35858 46.4836 1.25375C47.2063 0.419922 47.932 -0.0357064 49.0206 0.166795C49.07 0.171268 49.1198 0.171268 49.1693 0.166795C51.049 0.187641 53.1993 -0.354349 54.734 0.384186C56.3847 1.17632 57.4702 3.15965 58.7819 4.64565C63.1956 9.68734 67.5974 14.7141 72.0557 19.7022C72.2649 19.9215 72.5172 20.095 72.7967 20.2118C73.0762 20.3287 73.3768 20.3863 73.6796 20.3812C79.2324 19.7052 84.7614 18.8654 89.9663 16.6707C90.9133 16.2549 91.8021 15.7173 92.6103 15.0715C94.154 13.8565 94.1688 12.4837 92.6698 11.224C90.4035 9.3151 87.6137 8.45447 84.815 7.9095C79.7232 6.91784 74.5778 6.2061 69.4652 5.31569C68.7626 5.19075 68.1115 4.86377 67.5914 4.37466C66.3571 3.13582 65.2478 1.74809 63.7607 0.0804339C66.3006 0.324627 68.4331 0.497349 70.5567 0.735586C78.6881 1.6528 86.7601 2.90354 94.3503 6.11379C96.3929 6.9895 98.3086 8.13637 100.046 9.52356C102.639 11.5903 102.589 14.4163 100.177 16.6707C97.7646 18.925 94.719 20.3276 91.5842 21.218C86.9802 22.5224 82.278 23.4694 77.6055 24.5682C77.326 24.6367 77.0404 24.6933 76.5348 24.8005L80.9069 29.863C77.9327 29.863 75.2559 29.9018 72.6119 29.8243C72.1747 29.8243 71.669 29.3687 71.3389 28.9965C64.9781 21.7838 58.6331 14.5613 52.3041 7.3288C51.9442 6.92082 51.5575 6.53964 51.1144 6.08103L37.79 21.2686C39.0481 21.3669 40.092 21.5128 41.1389 21.5218C46.8345 21.5664 52.5331 21.6081 58.2287 21.5813C58.6386 21.5473 59.0503 21.6221 59.4221 21.7983C59.7939 21.9745 60.1127 22.2459 60.3463 22.5849C61.2385 23.7761 62.2498 24.8422 63.4216 26.2091C60.495 26.3371 57.845 26.5962 55.2039 26.5367C48.3633 26.3818 41.5434 26.0721 34.7117 25.8726C34.218 25.8726 33.4596 26.1049 33.2514 26.4682C31.4669 29.6337 28.6592 30.277 25.337 29.875C24.2039 29.7529 22.9964 29.869 21.3992 29.869Z" fill="#A1A4A9"/>
</g>
<defs>
<clipPath id="clip0_1_312">
<rect width="102" height="30" fill="white"/>
</clipPath>
</defs>
</svg>
