<svg width="82" height="45" viewBox="0 0 82 45" fill="none" xmlns="http://www.w3.org/2000/svg">
<g clip-path="url(#clip0_1_297)">
<path d="M41.2115 29.4739C36.8573 29.4739 32.5031 29.4739 28.1489 29.4739C26.6063 29.4739 26.258 29.1202 26.2455 27.6093C26.2455 26.7915 26.2455 25.9737 26.2455 25.1559C26.2455 23.7002 26.0817 23.5469 24.5536 23.5469H6.92944C5.16703 23.5469 3.40461 23.5612 1.64012 23.5469C0.159696 23.5305 -0.377323 22.6902 0.288248 21.396C2.71416 16.6936 5.16703 11.9912 7.59501 7.28879C8.13411 6.22359 9.02776 5.91692 10.1536 5.91692C14.9557 5.93123 19.7598 5.91692 24.564 5.91692C26.0983 5.91692 26.2372 5.77993 26.2414 4.2997C26.2414 3.44713 26.2414 2.59456 26.2414 1.74404C26.26 0.386476 26.6561 -0.00402832 28.0556 -0.00402832C35.8337 -0.00402832 43.6105 -0.00402832 51.3859 -0.00402832C52.3189 -0.00402832 53.2519 -0.00402832 54.185 -0.00402832C55.7401 -0.00402832 56.1112 0.376254 56.1236 1.94645C56.1236 2.79697 56.1236 3.64954 56.1236 4.5021C56.1236 5.7738 56.2688 5.92305 57.546 5.93327C64.9067 5.93327 72.2681 5.93327 79.6301 5.93327C79.8727 5.93327 80.1153 5.93327 80.3558 5.93327C81.8072 5.96803 82.365 6.81242 81.7222 8.09229C80.8928 9.77289 80.0116 11.4371 79.1449 13.1014C77.6334 16.0107 76.0825 18.9037 74.6269 21.8397C74.0049 23.0766 73.1299 23.5816 71.7615 23.5714C67.0962 23.5346 62.431 23.555 57.7637 23.5591C56.2398 23.5591 56.1278 23.6797 56.1236 25.1947C56.1236 26.0473 56.1423 26.8999 56.1236 27.7504C56.1008 29.0528 55.709 29.4576 54.3737 29.4617C49.9904 29.4801 45.601 29.4739 41.2115 29.4739ZM19.0694 19.0019C22.559 19.0019 26.0485 19.0244 29.5381 18.9896C30.5313 18.9896 30.9087 19.3597 30.8672 20.3206C30.8216 21.4451 30.8776 22.5696 30.8506 23.6941C30.834 24.5405 31.1969 24.931 32.0781 24.931C38.1242 24.9187 44.1696 24.9187 50.2144 24.931C51.1474 24.931 51.531 24.5221 51.5123 23.6266C51.4916 22.6391 51.5123 21.6495 51.5123 20.662C51.5123 19.0489 51.5662 18.9957 53.2063 18.9937C58.6981 18.9937 64.1907 18.9937 69.6839 18.9937C70.3702 18.9937 70.9424 18.9487 71.3094 18.2127C72.3462 16.1027 73.4803 14.0296 74.5502 11.9319C75.0064 11.0385 74.7223 10.5743 73.7208 10.5007C73.4119 10.4783 73.0988 10.5007 72.7899 10.5007C66.1549 10.5007 59.5199 10.5007 52.8849 10.5007C51.6741 10.5007 51.4999 10.329 51.4895 9.14727C51.4792 8.02278 51.4895 6.89829 51.504 5.77584C51.504 4.98666 51.1702 4.57571 50.3263 4.57571C44.2111 4.58525 38.0965 4.58525 31.9827 4.57571C31.2155 4.57571 30.8402 4.92328 30.8527 5.69815C30.8713 6.75517 30.8527 7.81219 30.8527 8.86717C30.8527 10.4128 30.7614 10.5028 29.2271 10.5028C23.5977 10.5028 17.9663 10.5028 12.3349 10.4823C11.4744 10.4823 10.9395 10.7256 10.5517 11.5353C9.61868 13.4735 8.58611 15.3626 7.59916 17.2743C6.93981 18.5521 7.21558 18.9896 8.69601 18.9917C12.1573 18.9985 15.615 19.0019 19.0694 19.0019Z" fill="#A1A4A9"/>
<path d="M38.2714 35.1536C40.3012 35.1536 42.2669 35.1393 44.2304 35.1536C45.0598 35.1536 45.5056 35.6606 45.5387 36.4457C45.5802 37.468 45.5781 38.4902 45.5387 39.5125C45.4973 40.639 44.5767 40.7678 43.6146 40.9191L46.2707 44.9673C45.4268 44.9673 44.7757 45.0225 44.1433 44.9428C43.8288 44.8656 43.5573 44.6705 43.3865 44.3989C42.6235 43.1845 41.8978 41.9455 41.1825 40.7045C40.6309 39.7435 40.8818 39.3551 42.0284 39.3203C43.3368 39.2835 44.0085 38.1877 43.4052 37.0182C43.3057 36.826 42.9905 36.7074 42.7541 36.6256C42.5488 36.5889 42.3391 36.5833 42.1321 36.6093H40.2888V44.8978H38.2714V35.1536Z" fill="#A1A4A9"/>
<path d="M46.7476 39.9991C46.7476 38.9114 46.731 37.8237 46.7476 36.7278C46.7704 35.5706 47.1622 35.1679 48.286 35.1495C49.8066 35.1263 51.3229 35.1263 52.8351 35.1495C53.9569 35.1679 54.413 35.6033 54.4234 36.7013C54.4441 38.9121 54.4441 41.1215 54.4234 43.3296C54.4109 44.5073 53.9631 44.9509 52.8082 44.9652C51.3264 44.9843 49.8446 44.9843 48.3628 44.9652C47.1809 44.9489 46.7579 44.5297 46.733 43.3521C46.7102 42.2317 46.733 41.1031 46.733 39.9888L46.7476 39.9991ZM52.3707 40.1565C52.3707 39.7824 52.3707 39.4082 52.3707 39.0341C52.3479 36.276 52.6859 36.6726 49.8598 36.6113C49.0304 36.5929 48.7712 36.9446 48.7961 37.7092C48.8314 38.8296 48.7961 39.9582 48.7961 41.0745C48.7961 43.6976 48.8583 43.7324 51.504 43.5034C52.1074 43.4482 52.3728 43.1926 52.3624 42.6058C52.3583 41.7901 52.3686 40.9723 52.3707 40.1565Z" fill="#A1A4A9"/>
<path d="M21.0308 44.9488H19.0652V40.6308H16.0608V44.9243H14.0392V35.2067H16.0318V39.0197H19.0154V35.2108H21.0246L21.0308 44.9488Z" fill="#A1A4A9"/>
<path d="M28.8994 35.2885C29.0038 35.2393 29.1128 35.2002 29.2249 35.172C31.2465 35.0289 31.2465 35.0289 31.7587 36.9364C32.2708 38.844 32.7809 40.7495 33.2972 42.6611C33.3724 42.9833 33.5622 43.2684 33.8321 43.4646C33.9399 43.1313 34.0643 42.8001 34.1556 42.4607C34.6794 40.4884 35.1999 38.5121 35.7169 36.5316C36.1315 34.9778 36.1315 34.9778 37.8774 35.2722C37.0687 38.2286 36.287 41.187 35.4141 44.1188C35.3063 44.4807 34.7009 44.6995 34.3194 44.9755C34.2737 45.0082 34.1846 44.9755 34.112 44.9755C31.3502 44.9755 31.684 45.2188 30.977 42.6999C30.2948 40.2506 29.6044 37.7972 28.8994 35.2885Z" fill="#A1A4A9"/>
<path d="M28.5345 39.0382V40.5368H24.6406C24.5266 40.7413 24.4664 40.7862 24.4643 40.8435C24.3627 44.0657 24.284 43.4359 26.9193 43.5014C27.5994 43.5157 28.2815 43.5014 29.0093 43.5014V44.9509C27.1432 44.9509 25.2979 44.9959 23.4525 44.9264C22.7434 44.8998 22.3888 44.3028 22.3847 43.62C22.366 41.234 22.3598 38.848 22.3847 36.4641C22.3951 35.6749 22.874 35.1883 23.6993 35.1761C25.2834 35.1515 26.8675 35.1761 28.5345 35.1761V36.6359C27.6595 36.6359 26.7741 36.6359 25.8867 36.6359C24.4519 36.6359 24.4167 36.6727 24.425 38.0507C24.425 38.3512 24.4519 38.6518 24.4706 39.0504L28.5345 39.0382Z" fill="#A1A4A9"/>
<path d="M64.2162 39.0586H68.2262V40.5429H64.1705C64.1705 41.3955 64.0855 42.1458 64.2162 42.8573C64.2638 43.119 64.8174 43.4462 65.1575 43.4707C66.3186 43.5463 67.488 43.4993 68.7134 43.4993V44.9673C66.8743 44.9673 65.087 44.9939 63.2997 44.955C63.141 44.9615 62.9827 44.9352 62.835 44.8778C62.6873 44.8204 62.5533 44.7332 62.4418 44.6217C62.3303 44.5102 62.2437 44.3769 62.1876 44.2305C62.1314 44.084 62.107 43.9276 62.1158 43.7712C62.0895 41.3178 62.0895 38.8644 62.1158 36.4109C62.1158 35.6545 62.5947 35.1965 63.3598 35.1842C64.9771 35.1556 66.5944 35.1842 68.2697 35.1842V36.642H65.5742C64.1726 36.642 64.1457 36.6686 64.1581 38.0854C64.1622 38.3676 64.1913 38.6661 64.2162 39.0586Z" fill="#A1A4A9"/>
<path d="M13.0999 35.1801V36.6236C12.0839 36.6236 11.0638 36.6522 10.0478 36.6133C9.28893 36.5847 8.99865 36.875 9.01109 37.6356C9.04219 39.2712 9.03389 40.9068 9.01109 42.5425C8.99865 43.2437 9.29515 43.53 9.99389 43.5136C10.9912 43.4911 11.9906 43.5136 13.0709 43.5136V44.9448C11.3789 44.9448 9.66836 45.002 7.96608 44.8977C7.62189 44.8753 7.04755 44.2455 7.03511 43.8755C6.9501 41.3607 6.93973 38.8419 7.03511 36.3271C7.04962 35.9345 7.71312 35.2701 8.11744 35.2394C9.7513 35.1065 11.4018 35.1801 13.0999 35.1801Z" fill="#A1A4A9"/>
<path d="M68.8441 36.6645V35.2211H76.4495V36.595H73.754V44.9264H71.6806V36.6645H68.8441Z" fill="#A1A4A9"/>
<path d="M57.7243 43.5075H61.6182V44.8978H55.7898V35.2211H57.7243V43.5075Z" fill="#A1A4A9"/>
</g>
<defs>
<clipPath id="clip0_1_297">
<rect width="82" height="45" fill="white"/>
</clipPath>
</defs>
</svg>
