<svg width="102" height="39" viewBox="0 0 102 39" fill="none" xmlns="http://www.w3.org/2000/svg">
<g clip-path="url(#clip0_1_308)">
<path d="M52.5796 -0.000251968C53.294 0.0403261 54.0084 0.0989389 54.7249 0.116974C61.7844 0.264468 68.8163 1.06049 75.7346 2.4953C80.3935 3.47819 84.9549 4.77894 89.3343 6.68836C92.6799 8.14466 95.8657 9.87374 98.528 12.4482C99.9634 13.8369 101.164 15.4059 101.698 17.3874C102.526 20.4646 101.561 23.0819 99.5884 25.4016C97.4209 27.9513 94.6788 29.7029 91.7459 31.1795C87.5306 33.2963 83.0935 34.7278 78.5388 35.855C71.9276 37.4893 65.212 38.3347 58.4321 38.7405C56.3489 38.8622 54.2613 38.8645 52.1736 38.9276C51.9762 38.9276 51.7787 38.975 51.5813 38.9997H49.9173C49.777 38.9668 49.6347 38.9427 49.4914 38.9276C46.7271 38.8059 43.9561 38.7428 41.194 38.5579C33.7108 38.0529 26.3297 36.8559 19.1416 34.6692C14.547 33.2692 10.0988 31.5131 6.12098 28.7065C3.96455 27.1848 1.99669 25.4399 0.887419 22.9489C0.44371 21.9096 0.286193 20.7396 0 19.6125V19.2743C0.0338689 19.1894 0.0584212 19.1009 0.0732121 19.0106C0.215199 17.1124 0.960631 15.46 2.10318 13.9856C4.21524 11.2714 6.9973 9.45218 9.98347 7.91697C15.4123 5.12611 21.2182 3.47819 27.1528 2.28114C33.789 0.968799 40.5245 0.243195 47.2839 0.112465C47.9806 0.0966844 48.675 0.0358173 49.3694 -0.00476074L52.5796 -0.000251968ZM51.0266 37.2166H52.3023C60.121 37.2148 67.9198 36.4158 75.5815 34.8315C80.2959 33.8373 84.9127 32.5185 89.3143 30.5077C92.1541 29.2092 94.8607 27.6717 97.0792 25.3971C98.5058 23.9408 99.5862 22.2748 99.8103 20.1806C100.043 18.0096 99.2157 16.1746 97.8979 14.5447C96.1696 12.3963 93.9333 10.9062 91.5506 9.63027C87.0558 7.22489 82.2327 5.72351 77.3142 4.57379C70.2481 2.92588 63.0778 2.11431 55.8453 1.86859C50.0937 1.64673 44.3339 1.80638 38.6027 2.34651C32.4862 2.94842 26.4407 3.92455 20.526 5.66264C16.2864 6.90027 12.1732 8.44674 8.41717 10.8476C6.45376 12.0943 4.67226 13.5483 3.41657 15.5547C2.18971 17.5159 1.80146 19.5944 2.62232 21.8375C3.21911 23.4651 4.25296 24.7681 5.50644 25.9156C8.0733 28.2871 11.1127 29.8652 14.2919 31.1772C19.9714 33.5172 25.9038 34.8946 31.9449 35.8302C38.264 36.8027 44.6489 37.2663 51.0399 37.2166H51.0266Z" fill="#A1A4A9"/>
<path d="M50.7693 22.4847C51.1087 22.1195 51.355 21.8648 51.5924 21.5965C52.4798 20.5933 53.345 19.5428 54.563 18.9341C55.1026 18.6522 55.6869 18.469 56.289 18.3931C57.5381 18.2691 58.2369 18.8868 58.4321 20.1425C58.4854 20.3852 58.4854 20.6369 58.4321 20.8796C58.898 20.4986 59.3706 20.1244 59.8298 19.7344C60.6374 19.0468 61.5448 18.632 62.6208 18.7064C63.1451 18.7283 63.6425 18.9485 64.0152 19.3239C64.3879 19.6993 64.6091 20.2027 64.6352 20.7353C64.7084 21.8625 63.9497 22.9897 62.9491 23.2151C61.7711 23.4969 60.897 22.7417 60.9679 21.5086C60.9673 21.4173 60.9607 21.3262 60.948 21.2358C59.9274 21.7814 59.4349 23.6006 60.0273 24.5429C60.3845 25.111 60.9857 25.3409 61.7267 25.1809C62.7361 24.9555 63.5459 24.3626 64.3135 23.7133C65.5493 22.6696 66.734 21.5672 67.9897 20.5572C68.56 20.1123 69.1813 19.7391 69.8399 19.4459C72.1295 18.3796 73.9398 19.0198 75.0957 21.3192C75.4462 20.7962 75.7812 20.3138 76.0962 19.8178C77.4274 17.7235 78.7585 15.627 80.114 13.5395C80.205 13.3952 80.378 13.2149 80.5178 13.2104C81.5272 13.1833 82.5389 13.1946 83.697 13.1946C83.4174 13.6793 83.1956 14.058 82.956 14.4277C80.273 18.72 77.5915 23.0137 74.9115 27.309C74.7381 27.5747 74.5938 27.859 74.4811 28.1566C74.2216 28.8848 74.6564 29.4258 75.4063 29.268C75.7875 29.1975 76.1466 29.0351 76.4534 28.7946C77.5627 27.841 78.6431 26.8423 79.728 25.864C79.8944 25.7129 80.0319 25.5348 80.1895 25.377C81.0014 24.5564 81.1612 24.5745 81.9221 25.6768C80.855 26.804 79.7879 27.9582 78.6764 29.0741C77.7892 30.0117 76.7172 30.7483 75.5305 31.236C74.9813 31.4521 74.4031 31.5828 73.8156 31.6238C72.653 31.6937 71.8943 31.0579 71.6192 29.9082C71.577 29.7301 71.5371 29.552 71.475 29.2748C71.2531 29.4664 71.0734 29.6129 70.9026 29.7685C70.1479 30.496 69.2293 31.0247 68.227 31.3082C65.922 31.8988 64.0917 30.5011 63.912 28.0236C63.872 27.469 63.912 26.91 63.912 26.3035C63.4713 26.5606 63.0156 26.7902 62.5476 26.9911C62.0187 27.2061 61.4646 27.3501 60.8992 27.4194C59.5348 27.5299 58.512 26.689 58.2369 25.3207C58.1903 25.0952 58.1593 24.8495 58.0949 24.4572C57.4759 25.4311 56.928 26.2833 56.3866 27.1399C55.619 28.3572 54.8625 29.5791 54.0838 30.7874C53.9817 30.9475 53.7976 31.1594 53.6401 31.1639C52.7039 31.2 51.7676 31.1819 50.6761 31.1819C50.898 30.7581 51.0444 30.447 51.2174 30.1585C52.675 27.7418 54.1415 25.3342 55.5902 22.9153C55.7737 22.6109 55.9113 22.2804 55.9984 21.9346C56.1515 21.2831 55.7322 20.8481 55.1709 21.1637C54.3256 21.6348 53.4559 22.1691 52.8103 22.877C51.5835 24.2296 50.4698 25.6791 49.376 27.1377C48.0937 28.8464 46.7382 30.4403 44.6416 31.1323C42.5828 31.8086 40.5906 31.209 39.5235 29.5656C39.2707 29.1212 39.044 28.662 38.8446 28.1904C38.321 28.6683 37.8329 29.1418 37.3138 29.5768C36.6482 30.1314 35.9826 29.8699 35.8318 28.993C35.8335 28.8963 35.854 28.801 35.8921 28.7124C35.9302 28.6238 35.9851 28.5437 36.0536 28.4767C36.3731 28.1431 36.7902 27.8883 37.0609 27.5209C37.5667 26.8446 38.1036 26.1457 38.4341 25.3725C39.4791 22.9288 40.8479 20.7849 43.3394 19.6713C44.2103 19.3228 45.1166 19.0733 46.0415 18.9274C46.5651 18.8259 47.1686 19.6037 47.0355 20.1177C47.0022 20.2552 46.7981 20.3814 46.645 20.449C45.3272 21.0307 44.0981 21.7475 43.1663 22.886C42.321 23.9207 41.7331 25.0817 41.7775 26.4704C41.8285 28.1003 43.0953 29.0088 44.6084 28.4519C46.361 27.8027 47.3461 26.4027 47.8829 24.6601C48.3011 23.3445 48.3258 21.9323 47.9539 20.6023C47.8142 20.1041 47.9295 19.7637 48.3777 19.527C48.5574 19.4323 48.7282 19.3196 48.9101 19.2272C49.4515 18.9522 49.8175 19.0018 50.0438 19.5834C50.2945 20.3035 50.5027 21.0383 50.6672 21.7836C50.7145 22.0151 50.7485 22.2492 50.7693 22.4847ZM73.1256 24.3468C72.8106 23.9478 72.8217 23.9523 73.0613 23.285C73.3009 22.6177 73.505 21.9504 72.9037 21.4049C72.3025 20.8593 71.6702 21.0419 71.0357 21.335C70.9503 21.3712 70.8686 21.4158 70.7917 21.468C68.8904 22.8206 67.5459 24.5542 67.1732 26.9483C67.0778 27.566 67.1222 28.1814 67.6591 28.5804C68.196 28.9794 68.7684 28.8419 69.3341 28.5804C71.1533 27.6855 72.196 26.0961 73.1256 24.3468Z" fill="#A1A4A9"/>
<path d="M45.8042 16.4161C46.1458 16.6821 46.3677 16.867 46.5895 17.036C46.8114 17.2051 47.1042 17.4215 46.8291 17.6966C46.7276 17.7866 46.6064 17.8508 46.4756 17.8837C46.3448 17.9166 46.2082 17.9174 46.0771 17.8859C45.6422 17.6798 45.2471 17.3966 44.9101 17.0496C44.7908 16.911 44.639 16.8052 44.4687 16.7422C44.2984 16.6791 44.1153 16.6608 43.9362 16.6889C42.5207 16.8444 41.1009 16.9549 39.6921 17.1397C39.3988 17.2012 39.1404 17.3758 38.971 17.6267C37.2761 20.1989 35.6654 22.8274 33.9172 25.3613C32.5861 27.2933 30.9577 28.9885 28.8567 30.0774C26.4163 31.3443 23.876 31.6396 21.3646 30.2735C19.2348 29.1148 18.2165 26.6057 18.7579 23.9771C19.3014 21.4162 20.8544 19.721 23.2593 18.853C23.6295 18.7366 24.0172 18.6885 24.4041 18.711C24.5908 18.7099 24.7715 18.7779 24.9123 18.9024C25.0532 19.0269 25.1446 19.1993 25.1695 19.3873C25.2449 19.7908 24.9964 19.9937 24.6769 20.1696C23.6409 20.7444 22.7313 21.4658 22.1611 22.5524C21.5621 23.6931 21.5577 24.836 22.272 25.9136C22.9864 26.9912 24.0824 27.282 25.2893 27.1963C26.8822 27.0836 28.2377 26.369 29.4357 25.35C31.9493 23.2084 33.9238 20.5844 35.8118 17.8859C35.8359 17.8214 35.8516 17.754 35.8584 17.6853C34.6848 17.6447 33.6798 18.0482 32.7347 18.6704C32.129 19.0695 31.7364 19.0852 31.5234 18.7336C31.3104 18.3819 31.5234 17.922 32.0958 17.5568C33.5223 16.6325 35.1463 16.3507 36.7725 16.0982C36.9601 16.0811 37.1418 16.0223 37.3047 15.9261C37.4676 15.8299 37.6078 15.6986 37.7153 15.5414C39.0465 13.614 40.4575 11.7609 42.31 10.3136C43.0399 9.74327 43.8274 9.24957 44.5884 8.73558C44.706 8.65442 44.828 8.58229 45.0854 8.42223C44.6594 8.32529 44.3688 8.2509 44.0759 8.19679C41.6821 7.72789 39.2883 7.23194 36.8346 7.27252C34.6826 7.30633 32.5994 7.66477 30.7535 8.89338C29.8373 9.50431 29.1118 10.2933 28.7879 11.3912C28.2821 13.1022 29.3026 14.2677 31.0198 13.9025C32.4441 13.6004 33.4801 12.6671 34.3942 11.5738C34.5125 11.3847 34.6453 11.2053 34.7913 11.0373C34.9422 10.9065 35.1929 10.7555 35.3415 10.8118C35.4901 10.8682 35.6233 11.1229 35.6854 11.3168C35.72 11.4826 35.6997 11.6554 35.6277 11.8082C34.8579 13.7109 33.7353 15.3385 31.9582 16.4026C30.7047 17.1533 29.3559 17.4892 27.9182 17.0383C26.4806 16.5874 25.6243 15.5279 25.4179 14.0355C25.1051 11.7812 26.028 9.99575 27.6786 8.58003C30.0103 6.58269 32.7924 5.81847 35.7763 5.6494C39.2683 5.41044 42.7071 5.94471 46.1458 6.46546C49.5846 6.98622 53.0233 7.50471 56.471 7.81807C59.7211 8.12015 62.9646 7.782 66.1616 7.06286C66.9625 6.88252 67.3707 7.32887 67.1644 8.13367C66.9669 8.90015 66.4034 9.36003 65.8022 9.77483C64.1161 10.9471 62.2192 11.4205 60.2026 11.4971C57.4516 11.6031 54.8026 11.026 52.1714 10.3069C50.3189 9.79963 48.4687 9.28113 46.7559 8.80772C46.4597 9.13566 46.1457 9.44649 45.8153 9.73876C43.9273 11.2221 42.0992 12.7776 40.7548 14.8245C40.6416 14.9959 40.5329 15.174 40.4375 15.3521C40.3931 15.4287 40.3554 15.5099 40.2889 15.6429C40.8302 15.6429 41.3183 15.6429 41.8064 15.6429C42.2944 15.6429 42.8003 15.5842 43.2994 15.5527C44.0981 15.5008 44.087 15.5008 44.1469 14.6758C44.229 13.5351 44.7504 12.6716 45.7997 12.2095C47.0443 11.6617 48.1736 12.48 48.0693 13.8462C47.9872 14.8899 47.4326 15.6226 46.5341 16.1005C46.3411 16.1952 46.1325 16.2718 45.8042 16.4161ZM45.4803 15.1582C46.1946 14.9327 46.6827 14.527 46.8846 13.8394C46.9077 13.7287 46.9042 13.6139 46.8745 13.5049C46.8447 13.3958 46.7896 13.2956 46.7138 13.2127C46.6108 13.1716 46.4999 13.1548 46.3895 13.1638C46.2792 13.1728 46.1723 13.2073 46.0771 13.2645C45.5313 13.5847 45.2828 14.3849 45.4803 15.1582Z" fill="#A1A4A9"/>
</g>
<defs>
<clipPath id="clip0_1_308">
<rect width="102" height="39" fill="white"/>
</clipPath>
</defs>
</svg>
